<?xml version="1.0" standalone="no"?>
<!DOCTYPE svg PUBLIC "-//W3C//DTD SVG 20010904//EN"
 "http://www.w3.org/TR/2001/REC-SVG-20010904/DTD/svg10.dtd">
<svg version="1.0" xmlns="http://www.w3.org/2000/svg"
 width="1024.000000pt" height="1024.000000pt" viewBox="0 0 1024.000000 1024.000000"
 preserveAspectRatio="xMidYMid meet">
<metadata>
Created by potrace 1.11, written by Peter Selinger 2001-2013
</metadata>
<g transform="translate(0.000000,1024.000000) scale(0.100000,-0.100000)"
fill="#000000" stroke="none">
<path d="M2466 7283 c-11 -3 -25 -11 -32 -17 -6 -7 -35 -32 -63 -56 -46 -39
-51 -48 -51 -84 0 -41 0 -41 -39 -42 -22 -1 -46 -7 -54 -15 -7 -8 -37 -34 -65
-58 -48 -40 -52 -47 -52 -86 0 -37 -3 -42 -22 -42 -13 -1 -32 -1 -43 -2 -11
-1 -50 -29 -86 -64 -59 -56 -66 -66 -65 -99 1 -37 1 -38 -35 -38 -28 0 -49
-10 -86 -39 -94 -75 -93 -74 -90 -192 2 -119 -14 -105 129 -111 43 -1 79 -7
81 -13 2 -5 3 -54 2 -107 0 -81 2 -98 15 -99 8 -1 29 -2 45 -4 17 -2 58 -4 93
-6 l62 -2 0 -109 0 -108 43 -1 c59 -1 160 -9 164 -13 2 -2 4 -49 6 -106 l2
-103 37 -3 c20 -2 67 -5 104 -7 l68 -4 50 46 c28 25 53 47 55 49 3 1 4 27 3
57 l-1 55 55 -1 c46 -2 59 2 82 23 15 14 38 35 52 46 23 21 24 29 25 132 l1
110 -29 0 c-17 0 -35 7 -42 16 -14 20 -117 24 -123 5 -6 -17 -79 -14 -89 4
-12 21 -92 27 -120 9 l-23 -14 0 109 0 110 -30 -1 c-19 -1 -36 6 -44 17 -14
20 -99 24 -121 5 -17 -14 -21 -4 -21 50 l1 45 56 0 c53 0 58 2 107 49 50 48
52 52 52 103 l0 53 93 -6 c50 -2 121 -6 157 -9 l66 -4 55 49 55 48 -2 103 c-1
57 -2 106 -3 109 0 3 -13 7 -27 8 -14 1 -32 9 -40 17 -18 17 -95 20 -124 5
-17 -9 -18 -4 -17 90 0 55 -1 102 -4 104 -2 3 -17 6 -32 8 -16 3 -32 10 -37
17 -8 14 -72 23 -104 14z"/>
<path d="M3068 7223 c-18 -16 -49 -43 -70 -61 l-36 -34 0 -749 c-1 -412 0
-749 1 -749 1 -1 50 -3 108 -7 l106 -5 53 49 53 50 -1 267 0 268 126 -7 c171
-9 180 -10 187 -17 3 -3 6 -148 6 -322 l1 -316 37 -1 c20 0 68 -2 106 -5 l70
-5 54 50 54 50 0 739 c0 407 -4 745 -7 751 -4 6 -20 11 -37 11 -18 0 -29 5
-29 14 0 16 -36 23 -87 17 -23 -2 -52 -21 -97 -63 l-65 -59 0 -187 c0 -103 0
-217 0 -253 l-1 -67 -36 0 c-20 0 -41 -5 -47 -11 -17 -17 -78 -13 -91 5 -16
21 -102 26 -121 8 -7 -8 -16 -14 -18 -14 -2 0 -4 141 -4 314 0 172 -3 318 -7
324 -3 6 -15 9 -25 7 -11 -2 -27 5 -37 16 -28 30 -104 26 -146 -8z"/>
<path d="M4607 7162 c-20 -4 -41 -20 -113 -85 -33 -29 -41 -43 -39 -66 2 -29
-6 -53 -19 -52 -45 6 -66 -3 -129 -60 -61 -55 -67 -64 -67 -100 0 -38 -1 -39
-34 -39 -19 0 -42 -7 -50 -16 -9 -8 -16 -13 -16 -9 0 3 -15 -8 -32 -24 -18
-16 -43 -38 -55 -49 -21 -18 -22 -26 -23 -208 -1 -104 -1 -250 -1 -325 l1
-136 73 -3 c39 -1 87 -3 105 -3 l32 -2 1 -60 c0 -33 0 -81 -1 -107 -1 -34 2
-48 12 -49 227 -12 204 1 203 -119 -1 -56 2 -103 5 -105 4 -2 52 -7 108 -9
l101 -6 55 51 c49 45 55 54 51 85 -6 65 1 73 58 69 49 -4 52 -2 104 48 51 49
53 53 53 105 l0 54 43 -4 c56 -6 65 -2 122 51 l48 44 0 314 c0 172 -3 317 -7
321 -8 7 -14 9 -46 11 -11 0 -20 8 -20 16 0 11 -12 15 -51 15 -28 0 -59 -5
-70 -10 -18 -10 -19 -6 -19 95 0 105 0 105 -24 105 -14 0 -32 8 -42 18 -22 21
-120 24 -133 3 -14 -21 -18 5 -16 112 l1 97 -29 0 c-17 0 -35 6 -41 14 -11 15
-68 25 -99 18z m41 -561 c21 -1 22 -4 22 -106 0 -58 1 -105 3 -106 1 0 34 -2
72 -5 39 -2 85 -7 103 -10 31 -5 33 -7 30 -41 -3 -34 -5 -37 -41 -40 -21 -1
-44 -8 -51 -15 -7 -7 -36 -33 -65 -57 -46 -40 -51 -48 -51 -86 l0 -42 -42 -1
c-24 -1 -44 -7 -46 -12 -2 -6 -8 -10 -13 -10 -5 0 -8 47 -6 105 1 58 0 105 -3
106 -3 0 -18 3 -34 5 -16 3 -35 12 -44 21 -19 19 -109 13 -123 -8 -6 -9 -8 7
-7 46 l3 60 50 -3 c48 -2 53 0 104 46 52 48 53 50 53 105 l1 55 31 -3 c17 -2
41 -4 54 -4z"/>
<path d="M5835 7057 c-84 -68 -96 -83 -99 -121 -5 -45 -2 -43 -48 -49 -20 -2
-43 -11 -51 -18 -7 -8 -37 -33 -65 -57 -44 -38 -51 -49 -54 -84 -3 -39 -4 -41
-38 -43 -36 -1 -48 -9 -127 -80 l-44 -40 0 -319 c0 -175 1 -320 3 -322 4 -3
121 -12 183 -13 l30 -1 0 -108 0 -107 25 -2 c14 0 54 -2 90 -3 97 -4 96 -2 95
-119 l-1 -101 25 -1 c14 0 35 -2 45 -4 11 -2 48 -5 82 -6 63 -2 63 -2 117 47
52 48 53 51 52 102 -1 57 -3 56 80 53 23 -1 42 10 83 49 50 48 52 51 52 104
l0 55 53 -5 c51 -4 53 -3 106 45 l53 49 1 318 0 317 -22 9 c-13 4 -27 6 -31 3
-5 -3 -13 3 -19 13 -8 15 -21 18 -66 17 -37 -1 -60 -6 -66 -16 -5 -9 -9 27 -9
99 l0 112 -35 0 c-24 0 -35 5 -35 15 0 9 -10 16 -22 16 -51 3 -91 -1 -103 -11
-19 -16 -21 -5 -20 103 0 59 -3 97 -10 98 -28 2 -46 9 -61 23 -10 10 -32 16
-62 16 -38 -1 -55 -7 -87 -33z m114 -633 c0 -58 1 -107 3 -109 2 -1 47 -5 101
-8 53 -3 101 -8 105 -11 5 -3 6 -21 4 -40 -4 -34 -7 -36 -39 -36 -36 0 -79
-28 -145 -94 -26 -25 -31 -38 -29 -68 l2 -38 -41 0 c-27 0 -43 -5 -46 -15 -13
-34 -23 1 -23 78 1 135 4 127 -37 127 -19 0 -33 4 -29 9 14 24 -88 37 -122 15
-23 -14 -23 -14 -23 41 l0 56 55 -2 c50 -2 57 0 99 37 51 45 60 63 57 122 l-1
42 55 0 55 0 -1 -106z"/>
<path d="M8010 6962 c-14 -5 -30 -18 -96 -76 -38 -33 -44 -44 -44 -77 0 -22
-3 -39 -7 -40 -5 0 -22 -2 -40 -4 -35 -4 -39 -7 -117 -77 l-51 -47 0 -529 c0
-292 3 -533 6 -536 4 -5 88 -11 187 -15 21 -1 22 -4 22 -110 0 -106 0 -109 23
-108 21 1 218 -10 342 -18 60 -4 60 -4 113 43 l52 48 3 107 c1 59 -1 108 -5
108 -5 1 -17 2 -27 3 -10 0 -28 9 -38 19 -23 20 -106 24 -124 4 -16 -16 -80
-9 -95 11 -13 18 -99 19 -120 1 -8 -6 -15 -10 -15 -8 -1 2 -2 75 -3 162 l-1
158 52 -2 c50 -2 55 0 108 46 l55 49 0 108 0 108 -35 0 c-24 0 -35 5 -35 15 0
16 -18 19 -85 17 -22 -1 -41 -7 -43 -12 -12 -35 -17 10 -17 150 0 162 0 165
35 162 3 0 61 -3 130 -7 69 -4 127 -8 129 -10 8 -8 57 25 94 63 l39 39 0 89
c0 131 2 124 -32 124 -16 0 -33 7 -38 15 -11 21 -85 26 -119 8 -27 -14 -95
-15 -87 -1 12 19 -74 34 -116 20z"/>
<path d="M6955 6812 c-27 -6 -48 -22 -107 -77 -41 -40 -48 -52 -48 -86 0 -38
-1 -39 -37 -39 -38 0 -66 -17 -136 -84 -42 -39 -40 -31 -38 -202 1 -48 2 -50
29 -51 127 -3 173 -7 178 -15 3 -5 6 -54 6 -108 l-1 -100 27 -1 c15 -1 43 -2
62 -4 19 -1 96 -5 170 -9 171 -9 170 -9 170 -52 0 -19 -3 -34 -7 -35 -5 0 -23
-2 -41 -4 -18 -2 -39 -8 -46 -14 -18 -15 -71 -8 -91 13 -14 14 -29 16 -68 12
-27 -2 -53 -10 -57 -16 -9 -15 -73 -3 -83 16 -10 18 -100 19 -119 1 -7 -7 -17
-14 -21 -14 -5 -1 -31 -22 -58 -48 l-49 -46 0 -109 0 -110 58 -1 c31 -1 75 -2
97 -4 64 -4 260 -15 380 -20 l110 -6 50 48 c47 45 51 52 50 93 -2 65 0 67 58
63 50 -4 54 -2 105 46 l52 49 0 106 0 106 -28 0 c-15 0 -35 9 -45 20 -14 16
-26 19 -68 16 -29 -2 -55 -9 -60 -17 -11 -17 -11 -13 -13 114 l-1 92 -30 3
c-16 2 -34 11 -40 19 -14 18 -117 23 -123 5 -6 -18 -73 -15 -86 4 -17 22 -105
26 -128 6 -17 -14 -18 -12 -18 42 l0 57 103 -6 c56 -2 143 -7 192 -10 50 -3
124 -7 165 -10 l75 -4 53 50 52 50 0 105 c0 62 -4 105 -10 105 -5 1 -19 2 -31
3 -11 0 -25 9 -30 19 -12 20 -88 24 -122 5 -28 -15 -78 -10 -92 9 -13 17 -102
20 -118 4 -16 -16 -85 -14 -94 4 -9 15 -64 25 -98 17z"/>
<path d="M3305 5084 c-46 -24 -136 -117 -134 -139 3 -40 -1 -56 -13 -54 -46 6
-70 -5 -129 -58 -35 -31 -65 -64 -65 -72 -1 -9 -2 -28 -3 -43 -1 -26 -4 -28
-40 -28 -38 0 -52 -10 -154 -101 -16 -15 -18 -41 -18 -334 0 -175 3 -320 6
-323 3 -4 29 -7 58 -8 96 -4 138 -8 143 -15 2 -4 4 -50 5 -103 0 -53 5 -98 10
-101 4 -3 50 -8 101 -11 50 -2 94 -7 97 -10 3 -2 5 -49 6 -104 0 -54 3 -101 5
-104 3 -2 51 -6 107 -8 l102 -3 54 47 c51 44 54 49 52 91 -4 62 4 70 59 65 43
-5 48 -2 101 44 54 49 55 51 55 104 l0 54 58 0 c56 0 59 2 106 49 l48 49 0
298 c0 165 -1 309 -1 322 -1 18 -7 22 -36 22 -24 0 -35 5 -35 15 0 9 -10 16
-22 16 -52 3 -91 -1 -104 -12 -11 -9 -14 8 -16 97 l-3 108 -27 1 c-14 1 -34 9
-43 18 -19 19 -85 23 -116 7 -22 -13 -21 -18 -23 105 l-1 90 -30 3 c-16 2 -34
11 -41 20 -15 21 -85 24 -119 6z m83 -658 c2 -74 6 -106 15 -107 40 -4 99 -7
145 -8 l52 -1 0 -43 c0 -42 0 -42 -35 -41 -37 2 -53 -8 -137 -85 -31 -28 -38
-41 -38 -73 0 -21 -3 -39 -7 -39 -5 -1 -24 -2 -43 -4 -19 -1 -36 -7 -38 -14
-11 -34 -19 1 -20 92 0 56 -1 104 -1 107 -1 3 -16 7 -33 8 -18 2 -36 9 -41 17
-10 19 -107 21 -125 3 -9 -9 -12 0 -12 44 l0 56 53 -4 c51 -4 53 -3 106 45 51
47 54 53 54 98 0 26 1 51 4 55 2 4 25 6 51 4 l47 -3 3 -107z"/>
<path d="M1186 5002 c-17 -4 -55 -35 -128 -104 -15 -15 -18 -34 -18 -123 0
-58 3 -105 8 -105 4 -1 50 -4 102 -7 52 -3 97 -9 100 -14 3 -4 5 -51 5 -104
-1 -60 3 -99 9 -101 9 -3 113 -10 194 -13 9 -1 13 -14 12 -43 -1 -24 -1 -73
-1 -109 l1 -67 73 -2 c99 -2 125 -5 132 -12 4 -3 6 -148 6 -322 -1 -293 1
-316 17 -316 9 -1 58 -3 107 -6 l90 -5 54 48 53 48 0 271 0 270 54 -4 c53 -4
54 -3 107 47 52 50 54 53 53 104 l-1 52 53 -3 c49 -2 55 0 100 40 63 57 62 55
62 116 l0 53 51 -5 c46 -5 54 -2 86 27 83 74 78 63 77 169 0 54 -4 101 -8 105
-8 8 -13 10 -47 12 -11 0 -18 5 -15 10 8 13 -19 21 -73 21 -44 0 -51 -4 -114
-62 -60 -56 -67 -67 -67 -100 0 -35 -2 -38 -30 -39 -16 -1 -35 -2 -40 -3 -6 0
-39 -27 -75 -59 -59 -53 -65 -62 -65 -98 0 -37 -1 -39 -32 -39 -38 0 -66 -17
-133 -79 -41 -37 -48 -50 -49 -83 0 -21 -3 -38 -6 -39 -3 0 -20 -2 -39 -5 -19
-2 -40 -9 -47 -15 -11 -9 -14 9 -16 96 l-3 108 -29 3 c-16 2 -34 10 -38 19
-10 17 -113 22 -123 5 -16 -26 -21 -2 -20 95 1 112 1 113 -52 106 -7 -1 -13 5
-13 12 0 28 -98 37 -124 12 -14 -14 -16 -14 -20 7 -3 13 -5 52 -5 88 2 115 3
110 -37 110 -19 0 -33 4 -29 9 3 5 1 12 -5 16 -13 8 -79 12 -104 7z"/>
<path d="M7385 4862 c-21 -4 -54 -28 -117 -84 -33 -29 -38 -40 -38 -76 0 -42
0 -42 -38 -42 -29 0 -48 -9 -82 -37 -97 -81 -97 -81 -95 -123 1 -40 1 -40 -36
-40 -21 0 -44 -6 -51 -12 -7 -7 -39 -34 -70 -60 l-56 -48 1 -322 2 -321 25 -4
c14 -1 57 -5 95 -7 39 -2 75 -5 80 -5 7 -1 11 -39 10 -106 -1 -58 -1 -105 -1
-105 1 -1 44 -3 96 -6 52 -3 101 -7 108 -9 8 -3 12 -34 12 -110 l0 -105 28 -1
c15 0 63 -2 107 -4 l80 -4 53 48 c51 48 52 51 52 104 l0 55 53 -3 c50 -4 54
-2 106 44 51 46 53 50 55 102 l1 54 52 -1 c48 -1 55 2 105 46 l53 48 0 321 c0
210 -3 321 -10 322 -29 2 -46 9 -61 24 -17 17 -89 18 -125 1 -14 -6 -16 4 -17
86 0 51 -1 99 -1 106 -1 6 -13 12 -27 12 -15 0 -32 7 -38 15 -16 21 -96 27
-123 9 l-23 -14 0 108 0 108 -32 2 c-17 1 -36 9 -42 16 -12 15 -58 24 -91 18z
m53 -567 c2 -2 3 -44 3 -93 -1 -50 1 -97 4 -104 4 -10 25 -15 68 -16 80 -3
122 -8 134 -15 7 -5 10 -43 4 -68 0 -3 -17 -6 -37 -7 -36 -1 -59 -16 -131 -83
-37 -34 -43 -46 -43 -80 0 -39 0 -39 -38 -39 -21 0 -43 -5 -50 -12 -14 -14
-14 -19 -17 102 -1 50 -3 94 -4 98 0 5 -14 7 -31 6 -20 -1 -30 3 -30 12 0 28
-132 30 -143 1 -3 -7 -5 14 -5 46 l-1 57 58 0 c55 0 58 1 107 53 47 48 51 56
50 97 -1 25 -1 48 1 51 2 6 95 0 101 -6z"/>
<path d="M4195 4832 c-30 -4 -60 -23 -128 -85 l-38 -34 0 -533 c0 -293 2 -535
5 -537 2 -3 49 -7 103 -10 54 -3 99 -6 100 -7 2 -1 4 -51 5 -109 l2 -107 51
-1 c27 0 68 -2 90 -3 202 -14 289 -16 294 -9 3 4 26 26 51 49 44 39 45 42 45
96 l-1 55 56 -3 c54 -3 56 -3 107 48 l53 52 0 533 0 533 -30 0 c-17 0 -33 7
-38 17 -7 12 -24 16 -63 17 -57 0 -55 1 -145 -78 l-44 -38 0 -364 0 -364 -39
0 c-22 0 -43 -4 -46 -10 -9 -14 -96 -13 -92 1 5 27 -100 32 -130 7 -10 -8 -13
76 -13 415 0 458 2 437 -50 437 -10 0 -20 6 -23 14 -6 15 -39 23 -82 18z"/>
<path d="M5195 4738 c-22 -18 -53 -45 -70 -60 l-30 -28 0 -643 -1 -644 46 -2
c25 -1 71 -4 102 -6 54 -4 60 -2 107 35 27 21 53 45 58 52 4 7 8 81 9 163 1
83 2 155 3 160 0 6 23 9 51 7 l50 -4 1 -36 c0 -21 0 -69 0 -108 l-1 -71 52 -2
c93 -4 147 -9 156 -15 5 -3 8 -48 7 -101 -1 -52 1 -99 4 -103 4 -4 26 -8 51
-9 107 -4 288 -14 327 -18 39 -5 45 -2 97 46 l56 52 0 102 c0 108 -3 115 -50
115 -10 0 -20 7 -24 15 -6 17 -111 22 -121 5 -16 -26 -21 -2 -20 95 1 107 -2
113 -40 105 -5 -1 -15 6 -22 16 -14 19 -103 26 -135 10 -16 -7 -18 -2 -17 43
1 30 6 51 13 52 6 0 31 0 56 0 41 -1 50 3 95 46 l50 48 -1 210 c-1 116 -2 213
-3 217 0 3 -14 5 -31 4 -18 -1 -30 3 -30 10 0 6 -7 15 -16 18 -25 10 -102 7
-109 -4 -17 -27 -24 -2 -24 78 1 127 2 122 -26 122 -14 0 -34 9 -44 19 -22 22
-98 24 -123 4 -18 -15 -74 -8 -94 12 -19 19 -98 20 -116 1 -18 -17 -79 -11
-91 9 -5 10 -24 15 -60 15 -44 0 -59 -5 -92 -32z m322 -332 c2 -2 5 -50 6
-107 l2 -104 55 -2 c44 -2 155 -11 155 -13 0 0 0 -16 0 -35 0 -19 0 -35 0 -35
0 -1 -18 -3 -40 -6 -22 -3 -44 -10 -49 -15 -17 -16 -74 -10 -85 8 -12 22 -117
25 -130 4 -7 -10 -9 -10 -13 1 -3 11 -3 252 1 299 1 13 10 15 48 13 25 -2 48
-6 50 -8z"/>
<path d="M8434 4580 c-12 -5 -48 -33 -80 -63 -47 -44 -58 -61 -60 -88 -1 -19
-2 -37 -3 -41 -1 -3 -12 -5 -26 -3 -33 3 -72 -19 -134 -77 l-51 -47 1 -105 c1
-71 5 -106 13 -106 69 -2 192 -15 196 -21 3 -4 5 -51 4 -104 0 -53 2 -97 5
-99 3 -2 60 -7 126 -11 66 -4 138 -9 160 -10 22 -2 61 -3 88 -4 l47 -1 0 -42
0 -43 -41 -1 c-22 0 -43 -5 -47 -10 -10 -16 -68 -10 -87 9 -21 21 -107 23
-124 3 -7 -8 -20 -13 -29 -11 -9 2 -27 4 -39 4 -13 1 -23 7 -23 15 0 16 -49
24 -93 16 -15 -3 -56 -30 -91 -60 l-64 -55 0 -107 c0 -75 3 -108 11 -109 7 -1
21 -3 32 -4 18 -2 116 -8 340 -20 39 -2 113 -7 165 -10 l95 -5 53 50 c50 48
52 51 52 104 l0 55 53 -5 c51 -4 53 -3 106 45 l53 50 2 106 c0 58 -2 106 -6
106 -8 1 -35 5 -59 8 -5 0 -8 5 -5 10 15 23 -105 28 -128 5 -15 -14 -16 -5
-16 95 l0 111 -30 0 c-17 0 -33 7 -38 17 -12 21 -107 27 -126 7 -16 -16 -86
-14 -86 2 0 7 -6 14 -12 17 -19 7 -100 2 -121 -7 -16 -7 -18 -4 -16 30 2 50 8
75 18 70 4 -3 56 -7 117 -10 221 -11 330 -17 361 -21 27 -4 41 3 87 43 60 51
58 45 58 172 0 102 0 101 -14 99 -34 -4 -58 2 -58 16 0 9 -10 15 -27 16 -51 2
-88 -3 -97 -12 -17 -16 -86 -11 -86 6 0 9 -10 16 -27 16 -51 3 -97 -2 -103
-11 -8 -13 -80 -10 -80 5 0 21 -76 31 -116 15z"/>
</g>
</svg>
