<?xml version="1.0" encoding="UTF-8" standalone="no"?>
<svg
   xmlns:dc="http://purl.org/dc/elements/1.1/"
   xmlns:cc="http://creativecommons.org/ns#"
   xmlns:rdf="http://www.w3.org/1999/02/22-rdf-syntax-ns#"
   xmlns:svg="http://www.w3.org/2000/svg"
   xmlns="http://www.w3.org/2000/svg"
   xmlns:sodipodi="http://sodipodi.sourceforge.net/DTD/sodipodi-0.dtd"
   xmlns:inkscape="http://www.inkscape.org/namespaces/inkscape"
   width="96mm"
   height="96mm"
   viewBox="0 0 96 96"
   version="1.1"
   id="svg10"
   sodipodi:docname="background.svg"
   inkscape:version="0.92.4 (5da689c313, 2019-01-14)">
  <metadata
     id="metadata16">
    <rdf:RDF>
      <cc:Work
         rdf:about="">
        <dc:format>image/svg+xml</dc:format>
        <dc:type
           rdf:resource="http://purl.org/dc/dcmitype/StillImage" />
      </cc:Work>
    </rdf:RDF>
  </metadata>
  <defs
     id="defs14" />
  <sodipodi:namedview
     pagecolor="#ffffff"
     bordercolor="#666666"
     borderopacity="1"
     objecttolerance="10"
     gridtolerance="10"
     guidetolerance="10"
     inkscape:pageopacity="0"
     inkscape:pageshadow="2"
     inkscape:window-width="1920"
     inkscape:window-height="1017"
     id="namedview12"
     showgrid="false"
     inkscape:zoom="0.32521701"
     inkscape:cx="645.22351"
     inkscape:cy="240.90141"
     inkscape:window-x="-8"
     inkscape:window-y="-8"
     inkscape:window-maximized="1"
     inkscape:current-layer="svg10" />
  <path
     d="M20.296 81.228a1.478 1.478 0 1 0-2.956.002v6.19c0 .81.663 1.48 1.483 1.48.814 0 1.476-.67 1.476-1.48v-6.2h-.011zM3.543 80.033l.004 9.6c0 .885.704 1.59 1.573 1.59h1.063v3.28c0 .82.66 1.482 1.47 1.482.81 0 1.467-.66 1.48-1.468v-3.28h1.993v3.28a1.475 1.475 0 1 0 2.952-.007v-3.28h1.078c.87 0 1.573-.71 1.573-1.578v-9.63L3.5 80.03l.04.002zm9.648-2.93a.56.56 0 1 1-.002-1.119.56.56 0 0 1 .002 1.119m-6.06 0a.56.56 0 1 1 .56-.548.565.565 0 0 1-.57.567m6.29-2.9l1.029-1.891c.06-.105.015-.226-.076-.285a.218.218 0 0 0-.284.09l-1.05 1.9a6.844 6.844 0 0 0-2.89-.63 7.127 7.127 0 0 0-2.892.603l-1.034-1.903a.205.205 0 0 0-.278-.08c-.1.045-.136.18-.08.27l1.03 1.875c-2.03 1.047-3.4 3.04-3.4 5.33h13.328c0-2.29-1.368-4.283-3.396-5.33M1.48 79.743c-.817 0-1.48.665-1.48 1.483v6.192a1.48 1.48 0 0 0 2.961 0v-6.19c0-.815-.66-1.478-1.47-1.478M24 75.449l9.75-1.349v9.451H24m10.949-9.602L48 72v11.4H34.949M24 84.6h9.75v9.451L24 92.699M34.949 84.6H48V96l-12.9-1.801M4.828 47.537a5.373 5.373 0 0 1-1.243-1.15 15.42 15.42 0 0 1-1.064-1.452A14.058 14.058 0 0 1 .743 41.3C.243 39.8 0 38.362 0 36.956c0-1.569.34-2.938 1.001-4.087.49-.9 1.22-1.652 2.1-2.181.849-.53 1.838-.82 2.837-.84.35 0 .73.05 1.13.15.29.08.64.21 1.07.37.549.21.849.34.949.37.32.12.59.17.8.17.159 0 .389-.05.644-.13.145-.05.42-.14.81-.31.385-.14.69-.26.934-.35.37-.11.727-.21 1.049-.26.39-.06.777-.08 1.147-.05.71.05 1.36.2 1.94.42 1.019.41 1.841 1.05 2.455 1.96-.26.16-.5.345-.725.55-.487.429-.9.939-1.23 1.503-.429.77-.649 1.64-.643 2.519.015 1.082.29 2.033.84 2.858.387.6.903 1.113 1.533 1.535.31.21.582.355.84.45-.12.375-.253.74-.405 1.1-.347.806-.76 1.578-1.25 2.308-.431.63-.771 1.1-1.029 1.409-.402.48-.79.84-1.18 1.096-.43.285-.934.436-1.45.436-.35.015-.7-.03-1.034-.127a9.881 9.881 0 0 1-.855-.323 6.94 6.94 0 0 0-.905-.34c-.38-.1-.77-.148-1.163-.147-.4 0-.79.05-1.16.145-.31.088-.609.196-.906.325-.42.175-.694.29-.854.34A4.48 4.48 0 0 1 6.3 48c-.52 0-1.003-.15-1.485-.45zm6.85-18.449c-.68.34-1.325.484-1.972.436-.1-.646 0-1.31.27-2.036.24-.62.56-1.18 1-1.68.459-.519 1.009-.948 1.628-1.258.66-.34 1.29-.52 1.89-.55.08.68 0 1.35-.25 2.069a5.932 5.932 0 0 1-1 1.759c-.435.52-.975.95-1.585 1.259z"
     id="path2"
     style="opacity:0.2" />
  <path
     d="M12 48c6.623 0 12 5.377 12 12s-5.377 12-12 12S0 66.623 0 60s5.377-12 12-12zm3.279 17.68a1.602 1.602 0 1 0 1.601 2.775 1.602 1.602 0 0 0-1.601-2.775zm-3.279-1a4.663 4.663 0 0 1-1.971-.435L8.916 66.24a6.955 6.955 0 0 0 4.944.465 2.24 2.24 0 0 1 1.095-1.587 2.244 2.244 0 0 1 1.92-.156 6.932 6.932 0 0 0 2.07-4.515l-2.285-.034A4.679 4.679 0 0 1 12 64.68zM7.32 60a4.68 4.68 0 0 1 1.99-3.83l-1.17-1.961a6.969 6.969 0 0 0-2.881 4.035 2.22 2.22 0 0 1 .83 1.74c0 .704-.324 1.319-.83 1.739a6.97 6.97 0 0 0 2.881 4.034l1.17-1.965A4.585 4.585 0 0 1 7.32 60zm-3.48-1.602a1.602 1.602 0 1 0 0 3.203 1.602 1.602 0 0 0 0-3.203zM12 55.32a4.679 4.679 0 0 1 4.66 4.265l2.285-.034a6.949 6.949 0 0 0-2.07-4.516 2.247 2.247 0 0 1-3.015-1.745 7.13 7.13 0 0 0-1.86-.25c-1.11 0-2.155.26-3.084.72l1.113 1.995A4.664 4.664 0 0 1 12 55.32zm3.279-1.001a1.603 1.603 0 0 0 2.189-.585 1.604 1.604 0 0 0-2.777-1.601 1.6 1.6 0 0 0 .588 2.186zM35.39 49.21c-1.014 2.487-1.626 4.114-2.755 6.527.693.735 1.543 1.59 2.923 2.554-1.484-.61-2.496-1.224-3.252-1.86C30.86 59.447 28.596 63.743 24 72c3.612-2.085 6.412-3.37 9.021-3.862a6.612 6.612 0 0 1-.171-1.547l.003-.115c.058-2.315 1.261-4.095 2.687-3.973 1.426.12 2.534 2.096 2.478 4.409-.01.436-.06.855-.146 1.243 2.58.505 5.352 1.787 8.914 3.844-.702-1.293-1.33-2.459-1.928-3.57-.944-.73-1.927-1.682-3.934-2.713 1.38.36 2.367.772 3.137 1.235-6.09-11.335-6.582-12.842-8.67-17.74zm11.508 20.756v-.624h-.233v-.084h.561v.084h-.234v.624h-.094m.425 0v-.708h.142l.167.501.034.106c.008-.026.02-.064.038-.114l.17-.493H48v.708h-.091v-.593l-.206.593h-.084l-.205-.603v.603h-.09M42.716 35.157v3.98c0 .123-.08.155-.18.072l-2.033-1.682a.55.55 0 0 1-.181-.37v-.502l-.635-.516c-.68-.554-1.226-1.677-1.226-2.5 0-.822.549-1.036 1.226-.478l.635.516v-.502c0-.122.08-.154.18-.071l2.033 1.682c.1.082.181.248.181.37zm-2.993-1.265c-.358-.296-.648-.182-.648.253s.29 1.027.648 1.323l.599.486v-1.576zm2.84 10.039l.012-.012a.334.334 0 0 0 .037-.037l.004-.004a.36.36 0 0 0 .033-.047l.007-.01a.3.3 0 0 0 .019-.043l.004-.011a.33.33 0 0 0 .013-.055v-.015l.003-.027.003-.152-5.224-4.28.022-12.913-.147-.111-.005-.003-.034-.02c-.006-.003-.014-.01-.022-.01l-.03-.012-.03-.011-.025-.004a.257.257 0 0 0-.04-.004h-.004l-.023.001a.224.224 0 0 0-.037.003l-.03.008c-.01.003-.02.004-.03.011l-.03.012-.029.015a.202.202 0 0 0-.014.011l-.035.011-3.445 1.727.72.57.027 10.069-5.247-4.321-.003-5.242-.003-4.704v-.011a.283.283 0 0 0-.005-.034.167.167 0 0 0-.005-.03l-.008-.03c-.004-.012-.007-.024-.015-.035l-.002-.008-.01-.015a.119.119 0 0 0-.02-.03l-.018-.023a.354.354 0 0 0-.074-.062.294.294 0 0 0-.026-.015c-.01-.004-.02-.011-.03-.011a.365.365 0 0 0-.061-.015l-.035-.004-.02-.002h-.01a.3.3 0 0 0-.035.005c-.01 0-.02.002-.03.004-.01.002-.019.008-.03.008a.286.286 0 0 0-.032.011l-.01.004-4.323 2.165-.016.012a.336.336 0 0 0-.077.06.303.303 0 0 0-.053.078.402.402 0 0 0-.023.06.284.284 0 0 0-.01.066c0 .008-.003.011-.002.018l.006 10.11v.02l.002.007c0 .015.003.03.006.044l.002.008.004.011a.32.32 0 0 0 .02.054v.001h.002c.009.02.02.034.03.05l.008.012.006.008a.31.31 0 0 0 .03.03l.007.008c.004.003.008.004.01.008.002 0 .003.003.004.004l4.701 3.91-.107 2.673v.038l.004.027.002.015c0 .004.002.011.005.015 0 .004.002.008.003.011v.004l.004.012c.005.015.01.026.017.04v.002a.32.32 0 0 0 .03.049l.007.008.005.004a.342.342 0 0 0 .037.039l.005.003.003.002.003.004 5.318 4.212c.1.078.236.092.35.034l7.99-4 .003-.002a.321.321 0 0 0 .045-.03zm-15.73-8.951l-1.657-1.28v1.101l.844.585-1.392.698-.006-9.378 2.176-1.09.023 2.393-1.546-1.236v1.1l1.554 1.235.024 1.182-1.595-1.276v1.1l1.603 1.275-.006 1.284-1.573-1.258v1.1l1.58 1.257.01 1.187zm3.433 6.04l-5.31-4.367 3.669-1.837 5.31 4.366zM27.48 25.274l.734-.367.079 9.342-.734.366zm2.495 7.116l-.001-1.59 1.31 1.023v1.592zm1.31-1.829l-1.311-1.025v-1.591l1.31 1.025zm1.091-.752c.507.646 1.027 1.907 1.027 3.074 0 1.165-.52 1.562-1.027 1.362zM62.055 84.684c-.4 0 .08.2.6.28.14-.1.27-.22.39-.33a3.002 3.002 0 0 1-.99.05m2.141-.53c.23-.33.4-.69.47-1.06-.06.27-.2.5-.33.73-.75.47-.07-.27 0-.56-.8 1.01-.11.6-.14.89m.78-2.051c.05-.72-.14-.5-.2-.22.07.04.13.5.2.22m-4.422-9.795c.2.04.45.07.42.12.23-.05.28-.1-.43-.12m.43.12l-.15.03.14-.012v-.019m6.634 9.946c.02.64-.2.95-.38 1.5l-.35.18c-.28.54.03.35-.17.781-.44.39-1.341 1.22-1.621 1.3-.2 0 .14-.25.19-.34-.59.4-.48.6-1.37.85l-.03-.06c-2.222 1.041-5.303-1.02-5.253-3.841-.03.17-.07.13-.12.2a3.552 3.552 0 0 1 2-3.502 3.362 3.362 0 0 1 3.733.48 3.342 3.342 0 0 0-2.722-1.3c-1.18.01-2.281.76-2.651 1.57-.6.38-.67 1.471-.93 1.661-.361 2.602.66 3.722 2.38 5.043.27.19.08.21.12.35a4.703 4.703 0 0 1-1.53-1.16c.23.33.47.66.8.91-.55-.18-1.27-1.3-1.48-1.35.93 1.66 3.781 2.92 5.262 2.3a6.203 6.203 0 0 1-2.331-.28c-.33-.16-.77-.51-.7-.57a5.803 5.803 0 0 0 5.903-.84c.44-.35.93-.941 1.07-.951-.2.32.04.16-.12.44.44-.72-.2-.3.46-1.24l.24.33c-.09-.6.741-1.321.66-2.262.191-.3.201.3 0 .971.291-.74.081-.85.151-1.46.08.2.18.42.23.63-.18-.7.2-1.201.28-1.601-.09-.05-.28.3-.32-.53 0-.37.1-.2.14-.28-.08-.05-.26-.321-.38-.861.08-.13.22.33.34.34-.08-.42-.2-.75-.2-1.08-.34-.68-.12.1-.4-.3-.34-1.091.3-.25.34-.741.54.77.84 1.96.98 2.461-.1-.6-.28-1.2-.49-1.76.16.07-.26-1.241.21-.371a7.824 7.824 0 0 0-3.662-4.392c.18.17.42.39.33.42-.75-.45-.62-.48-.73-.67-.61-.25-.65.018-1.06 0-1.161-.62-1.381-.55-2.442-.951l.05.23c-.77-.25-.9.1-1.73 0-.05-.04.27-.14.53-.18-.74.1-.7-.14-1.431.03.17-.13.36-.21.55-.32-.6.04-1.44.35-1.18.07-.991.45-2.742 1.07-3.722 1.991l-.03-.22c-.45.54-1.961 1.611-2.081 2.311l-.13.03c-.23.4-.38.851-.57 1.261-.301.52-.451.2-.401.28-.6 1.221-.9 2.252-1.16 3.102.18.27 0 1.651.07 2.762-.3 5.463 3.841 10.775 8.364 12.006.67.23 1.65.23 2.491.25-.99-.28-1.12-.15-2.08-.49-.701-.32-.851-.7-1.342-1.13l.2.35c-.97-.341-.57-.42-1.36-.671l.21-.27c-.31-.03-.83-.53-.97-.81l-.34.01c-.411-.5-.631-.87-.611-1.16l-.11.2c-.13-.21-1.521-1.9-.8-1.51-.13-.12-.31-.2-.5-.55l.14-.171c-.351-.44-.641-1.02-.621-1.2.2.24.32.3.45.33-.88-2.172-.93-.12-1.6-2.202l.15-.019c-.1-.16-.18-.34-.26-.51l.06-.6c-.631-.74-.18-3.102-.09-4.403.07-.54.53-1.1.88-1.98l-.21-.04c.4-.711 2.34-2.872 3.241-2.762.43-.55-.09 0-.18-.14.96-.99 1.26-.7 1.901-.88.7-.4-.6.16-.27-.15 1.2-.3.85-.701 2.421-.851.16.1-.39.14-.52.26 1-.49 3.152-.37 4.562.27 1.631.77 3.462 3.012 3.532 5.133l.08.019c-.04.85.13 1.82-.17 2.711l.2-.42m-9.875 2.871l-.05.28c.26.35.47.731.8 1.011-.24-.47-.42-.66-.75-1.3m.62-.02c-.14-.15-.22-.34-.31-.52.08.32.26.6.43.88l-.12-.36m10.946-2.38l-.07.15c-.1.76-.34 1.51-.69 2.21.4-.73.65-1.54.75-2.36M60.625 72.12c.27-.1.66-.05.95-.12-.37.03-.74.05-1.1.1l.15.02m-9.445 5.022c.07.57-.43.8.11.42.3-.66-.11-.18-.1-.42m-.64 2.661c.12-.39.15-.62.2-.84-.35.44-.17.53-.2.83"
     id="path4"
     style="opacity:0.2" />
  <path
     d="M55.453 48c-.18.587-.369 1.167-.565 1.75A11.638 11.638 0 0 0 48 60.364a11.638 11.638 0 0 0 .516 3.403l-.339.598-.177.365.279.143a3.448 3.448 0 0 0 .741.222 11.638 11.638 0 0 0 .98 1.773c4.034.343 8.55.512 12.446-.056 3.192-.463 5.94-1.423 7.735-3.117a6.73 6.73 0 0 0 .674-.722c.02-.038.037-.053.06-.076.011 0 .026-.038.038-.052.015 0 .03-.038.041-.057.008 0 .015-.038.023-.038.33-.444.587-.892.801-1.31l.181-.365-.365-.366a5.936 5.936 0 0 0-.36-.35 11.638 11.638 0 0 0-11.639-11.638 11.638 11.638 0 0 0-3.21.463c-.465-.676-.829-1.143-.972-1.184zm.365 1.637c1.242 2.183 2.312 3.423 3.636 5.82.132 1.524.67 9.45.727 10.181-.392-.038-2.485-.24-5.104-.515a102.77 102.77 0 0 1-4.092-.49l-1.9-.447c2.149-3.787 5.551-9.727 6.737-14.548zm4.543 6.18s4.991 3.927 7.092 8.73c-2.56 1.26-4.916 1.098-6.36 1.09 1.022-2.634 1.022-6.21-.73-9.82zm3.456 2.184a45.14 45.14 0 0 1 2.91.907c1.768.63 3.417 1.49 4.365 2.364a6.956 6.956 0 0 1-2.91 2.91c.151-1.495-.39-2.933-1.456-4.002-.787-.787-1.822-1.453-2.91-2.183zm6.707 6.478c-2.352 1.667-5.126 2.68-7.965 3.112a41.026 41.026 0 0 1-3.715.34h-.323a53.48 53.48 0 0 1-3.727 0 85.764 85.764 0 0 1-4.178-.23h-.003c2.555 3.255 6.993 4.893 11.092 4.102a11.367 11.367 0 0 0 4.498-1.852 11.638 11.638 0 0 0 .007 0c.312-.214.614-.444.903-.685a11.638 11.638 0 0 0 .038-.038 11.555 11.555 0 0 0 3.376-4.762zm-20.013 3.105a11.638 11.638 0 0 0 .023.038c-.008 0-.015-.038-.023-.038zM84 72c-6.625 0-11.995 5.368-12 11.992v9.286A2.728 2.728 0 0 0 74.728 96h9.277C90.63 95.997 96 90.626 96 84c0-6.627-5.373-12-12-12zm4.595 5.577c-.379 0-.516-.073-1.072-.073a2.973 2.973 0 0 0-2.973 2.968v2.583a.42.42 0 0 0 .42.42h1.953c.728 0 1.316.58 1.316 1.31 0 .734-.594 1.312-1.33 1.312h-2.358v2.985a5.632 5.632 0 0 1-5.633 5.632 4.48 4.48 0 0 1-1.244-.168c-.637-.166-1.157-.689-1.157-1.296 0-.734.533-1.268 1.33-1.268.378 0 .516.072 1.071.072 1.64 0 2.97-1.328 2.973-2.968v-2.583a.42.42 0 0 0-.42-.419h-1.953c-.727 0-1.315-.58-1.315-1.31 0-.734.594-1.312 1.33-1.312h2.357v-2.985a5.632 5.632 0 0 1 5.632-5.632c.472 0 .807.053 1.244.167.637.167 1.158.69 1.158 1.296 0 .735-.533 1.27-1.33 1.27zM63.772 41.338c-.857.99-1.334 2.79-.709 3.371.596.45 2.201.391 3.385-1.23.86-1.08.57-2.893.081-3.372-.73-.555-1.778.164-2.757 1.243zm-8.056.3c-.908-1.04-2.088-1.658-2.851-1.199-.51.382-.605 1.685.123 2.967 1.078 1.524 2.596 1.68 3.22 1.307.66-.488.3-2.137-.492-3.075zm4.105 3.145c-1.103-.026-2.798.44-2.776 1.032-.019.403 1.33 1.572 2.705 1.513 1.325.03 2.698-1.139 2.681-1.649-.004-.523-1.498-.927-2.606-.884zm-.075-13.944c-1.275-.03-2.502.933-2.502 1.493-.004.68 1.008 1.376 2.51 1.394 1.543.012 2.517-.559 2.531-1.26.016-.794-1.393-1.639-2.517-1.627zm-3.071.532c-2.135-.345-3.913.9-3.842 3.192.07.884 4.63-3.04 3.843-3.177zm9.748 3.251c.071-2.277-1.709-3.52-3.844-3.176-.787.135 3.772 4.061 3.844 3.176zm.364.824c-1.239-.329-.42 5.05.588 4.615 1.11-.869 1.466-3.446-.588-4.6zM51.89 40.121c1.007.45 1.827-4.929.589-4.6-2.053 1.153-1.698 3.73-.59 4.615zm9.415-5.948c-1.146.75-1.354 2.428-.461 3.746.89 1.318 2.543 1.813 3.69 1.078 1.146-.733 1.353-2.412.462-3.746-.891-1.333-2.544-1.813-3.691-1.063zm-3.096.135c-1.146-.734-2.8-.254-3.69 1.064-.891 1.334-.685 3.012.462 3.761 1.147.75 2.799.27 3.69-1.064.886-1.318.676-2.997-.464-3.745zm4.369 7.162c-.01-1.393-1.252-2.518-2.781-2.502-1.527.015-2.761 1.14-2.754 2.532v.03c.01 1.394 1.254 2.517 2.783 2.502 1.527 0 2.756-1.138 2.742-2.517v-.03zm3.208-15.133c-2.306 1.184-3.651 2.128-4.388 2.938.377 1.498 2.344 1.558 3.062 1.512-.146-.06-.27-.149-.314-.269.18-.12.82-.015 1.268-.255-.171-.03-.253-.06-.33-.195.42-.135.875-.24 1.141-.465-.143 0-.277.03-.467-.09.378-.194.778-.359 1.095-.658-.196 0-.406 0-.466-.075.347-.21.635-.435.877-.704-.272.045-.39.015-.454-.03.262-.255.593-.479.75-.81-.204.076-.392.09-.523 0 .091-.194.47-.314.69-.779-.215.03-.44.046-.486 0 .098-.389.27-.613.435-.854-.457 0-1.15 0-1.117-.03l.284-.285c-.448-.12-.904.015-1.236.12-.15-.105 0-.255.185-.405-.39.061-.733.135-1.034.256-.164-.15.105-.285.24-.436-.6.12-.84.27-1.094.42-.18-.165-.016-.314.104-.449-.45.164-.674.374-.914.568-.09-.104-.21-.18-.06-.449-.314.18-.554.39-.734.629-.194-.134-.12-.299-.12-.449-.33.27-.54.54-.793.811-.061-.03-.105-.15-.135-.346-.78.75-1.89 2.623-.285 3.356 1.349-1.094 2.98-1.903 4.778-2.503zm-12.258 0c1.798.6 3.419 1.408 4.777 2.518 1.596-.75.493-2.623-.282-3.356-.041.194-.085.329-.135.36-.255-.27-.462-.54-.788-.81 0 .15.077.33-.117.45a2.276 2.276 0 0 0-.725-.63c.149.255.024.33-.056.448-.24-.225-.465-.434-.9-.599.12.15.3.3.12.465-.238-.149-.493-.3-1.077-.42.135.15.404.3.238.45a4.312 4.312 0 0 0-1.035-.258c.18.15.342.29.192.405-.345-.12-.806-.255-1.255-.135l.284.284c.03.038-.66.03-1.121.034.165.225.337.45.435.854-.045.045-.27.015-.483 0 .225.45.599.57.688.765-.135.096-.314.075-.523 0 .164.314.494.54.748.81-.074.044-.18.074-.464.038.239.26.524.494.869.704-.06.07-.271.069-.48.075.315.304.72.464 1.095.663-.195.136-.33.105-.465.105.255.225.72.33 1.139.464-.09.135-.164.165-.345.195.45.254 1.078.135 1.258.27-.045.119-.164.209-.314.27.72.045 2.697-.015 3.072-1.514-.736-.807-2.084-1.752-4.39-2.921zm1.734-2.234c.236-.008.436.135.652.201.529-.17.65.063.91.16.577-.12.752.14 1.029.418l.322-.008c.869.507 1.305 1.536 1.457 2.065.152-.529.584-1.559 1.457-2.065l.32.008c.278-.283.454-.539 1.03-.418.26-.105.38-.33.91-.165.33-.104.62-.375 1.058-.045.368-.15.726-.196 1.045.09.495-.06.653.06.774.21.108 0 .809-.104 1.131.36.81-.09 1.064.463.774.987.166.255.338.494-.05.975.15.27.062.553-.27.913.091.375-.074.63-.373.84.06.51-.48.81-.63.913-.06.3-.18.584-.794.734-.09.45-.464.523-.824.614 1.185.675 2.188 1.558 2.188 3.731l.18.3c1.35.808 2.563 3.401.675 5.513-.12.66-.33 1.124-.511 1.648-.27 2.113-2.082 3.101-2.561 3.221-.69.525-1.438 1.02-2.442 1.363-.942.959-1.976 1.334-2.994 1.334h-.092c-1.033 0-2.063-.375-3.012-1.335-1.007-.344-1.754-.838-2.447-1.363-.48-.12-2.283-1.107-2.562-3.221-.187-.524-.394-1.004-.518-1.662-1.894-2.113-.681-4.705.666-5.515l.172-.3c0-2.172 1.005-3.057 2.188-3.73-.36-.09-.72-.165-.823-.615-.615-.15-.735-.434-.795-.734-.15-.105-.69-.404-.63-.928-.3-.21-.464-.465-.374-.854-.314-.346-.404-.645-.27-.915-.39-.479-.21-.733-.045-.974-.285-.525-.03-1.094.779-1.004.314-.465 1.02-.359 1.123-.359.12-.15.285-.285.779-.225.314-.285.675-.24 1.049-.102.15-.12.286-.164.406-.164zM83.4 48H72V36.6h11.4zM96 48H84.6V36.6H96zM83.4 35.4H72V24h11.4zm12.6 0H84.6V24H96zM72 49.798v4.193h1.828c1.276 0 1.502.865 1.502 2.058l.01 7.412c0 3.84 3.44 6.951 7.68 6.951h10.464c1.342 0 2.516-.83 2.516-2.108V56.811c0-3.84-3.44-6.95-7.683-6.95h-4.405v-.01zm5.723 2.566h2.102v10.561c0 1.413.984 2.51 2.14 2.51l7.17.03c1.495 0 2.66-1.01 2.66-2.205l-.012-5.607a1.2 1.2 0 0 0-.386-.91 1.224 1.224 0 0 0-.917-.385c-.374 0-.65.12-.918.384a1.2 1.2 0 0 0-.386.91v4.798h-2.223v-4.797c0-.364-.124-.648-.389-.91a1.208 1.208 0 0 0-.917-.384c-.366 0-.647.12-.914.384-.265.262-.39.546-.39.91v4.798H82.12v-4.798c0-.95.36-1.792 1.042-2.466a3.445 3.445 0 0 1 2.485-1.022 3.43 3.43 0 0 1 2.413.97 3.448 3.448 0 0 1 2.42-.97c.954 0 1.803.348 2.485 1.022a3.385 3.385 0 0 1 1.041 2.466l.01 5.991c-.106 1.004-.54 1.894-1.28 2.637h-.003a4.367 4.367 0 0 1-3.174 1.314h-7.985v-.038c-.976-.103-1.846-.519-2.57-1.217-.845-.825-1.28-1.846-1.28-3.01V52.365zM0 0v24h6.75V6.75h8.625V0zm8.625 8.625V24h6.75V8.625zM17.25 0v24H24V0z"
     id="path6"
     style="opacity:0.2" />
  <path
     d="M29.072 14.2a.619.619 0 0 0-.519.338c-.115.211-.389.242-.517.201-.21-.07-.48-.119-.744.068-.263.188-.546.045-.495-.297.05-.34.172-.645.5-.83.713-.41.216-.695.607-1.109.394-.411.307-.536.293-1.098-1.326-.2-2.077-.582-2.915-1.631-.84-1.047-1.165-1.91-1.251-3.224-.088-1.317-.011-2.169.557-3.26.568-1.089 1.168-1.614 2.201-2.159C27.824.651 28.84.522 29.78.54c.938.014 1.563.082 2.093.386.531.303 1.016.684 1.324.685.24.015.477-.053.673-.192.04 1.02-.878 1.108-1.698 1.13-.82.023-1.324-.317-2.08-.192-.754.128-1.992.471-2.595 1.52-.603 1.05-.624 1.42-.573 2.3.05.879.806 1.535 1.234 1.543.428.008.523-.117.898-.36.374-.246 2.284-2.61 2.934-3.14.653-.53 1.296-.696 1.99-.705.695-.008.87.015 1.433.246.56.23.904.652 1.356.91.23-.135.375-.339.584-.495.76-.552 1.152-.702 2.053-.615.518.052 1.169.347 1.56.686.692.604 1.265 1.441 1.727 2.08.36.496.785 1.09 1.392 1.276.66.201 1.157-.652 1.23-1.129.043-.27.097-.506.097-.8 0-.298-.03-.656-.115-.966a3.455 3.455 0 0 0-.392-.869c-.258-.416-.68-.85-1.116-1.072-.246-.125-.826-.353-1.19-.36-.449-.012-.79.14-1.202.168-.5.034-1.396.146-1.786-.24-.251-.246-.283-.41-.324-.73.109.091.264.15.4.162.314.027.606-.229.86-.378.21-.122.504-.34.778-.45.703-.285 1.567-.278 2.31-.2.594.06 1.367.324 1.89.621.525.296 1.03.797 1.4 1.268.465.594.72 1.104.888 1.844.216.945.277 2.365.015 3.299-.205.734-.887 1.86-1.467 2.414-.573.547-1.235.81-1.986.955.03.149.033.29.071.416.056.178.163.375.38.313.086-.027.133-.047.246.053.115.1.056.485-.266.66-.164.086-.334.105-.595.111a5.673 5.673 0 0 1-.952-.046c-.283-.047-.451-.273-.765-.308-.485-.056-.855-.405-1.245-.654-.162-.104-.218-.104-.311-.158.05.154.118.314.15.465.035.145.02.285.038.404.019.119.052.21.07.308.077.068.103.173.233.207s.334-.018.468-.037c.135-.02.224-.09.328-.07.105.019.204.096.292.166s.164.08.234.254c.07.178.135.537.146.777.009.24-.019.455-.09.648-.07.188-.134.272-.326.462s-.506.465-.82.66c.059.084.084.163.174.254.09.095.277.197.359.295.085.098.128.168.128.277a.587.587 0 0 1-.093.373c-.223.3-.483.352-.803.492.054.334.098.572.02.906-.03.137-.102.445-.27.525-.17.08-.492.04-.698.074-.205.03-.32.063-.48.094-.097.141-.241.297-.29.422-.05.127-.034.172.006.3.042.128.185.315.225.468.039.15.049.311.01.463a.835.835 0 0 1-.23.396c-.128.135-.381.24-.508.346-.125.111-.252.123-.217.303.047.248.409.646.67.744a.794.794 0 0 0 .557-.041c-.014.209-.195.354-.315.494.322-.094.636-.27.854-.504-.067.203-.3.529-.645.816-.345.287-.343.229-.517.344.314.06.606.045.85.002a1.686 1.686 0 0 1-.641.207c-.29.03-.468.008-.73-.055-.26-.063-.498-.3-.813-.465.03.12.053.26.185.381.136.12.335.182.549.283-.272-.03-.558-.038-.824-.096a2.068 2.068 0 0 1-.478-.164c-.144-.07-.255-.176-.384-.264.061.117.079.256.184.352.104.098.275.135.412.199-.143-.004-.281.03-.43-.012a1.176 1.176 0 0 1-.443-.209c-.16-.119-.311-.25-.445-.396-.132-.145-.296-.332-.345-.463-.048-.133.03-.225.044-.338-.09.061-.201.095-.272.18-.07.088-.132.166-.101.318.03.15.172.338.271.506-.296-.242-.461-.336-.531-.625-.064-.273.104-.52.233-.725.064-.104.162-.199.221-.299-.135-.129-.285-.24-.4-.389-.113-.15-.162-.352-.277-.492-.117-.143-.274-.232-.41-.348.12.256.317.572.36.771.043.199-.049.322-.12.43-.07.107-.184.133-.292.197-.11.068-.277.015-.342.113-.065.097-.083.246-.021.344l.256.398a1.17 1.17 0 0 1-.327-.281c-.074-.096-.186-.188-.2-.316-.015-.131-.022-.246.064-.363.084-.117.318-.156.422-.246.105-.09.162-.148.156-.264-.006-.117-.12-.199-.217-.273-.3-.225-.68-.43-.934-.699a.931.931 0 0 1-.239-.379c-.03-.105.001-.188.07-.314.073-.131.316-.305.347-.443.029-.141-.095-.172-.205-.221-.111-.05-.322.026-.425-.06-.103-.087.03-.267-.086-.366-.116-.099-.381-.045-.519-.15a.724.724 0 0 1-.24-.395.83.83 0 0 1-.021-.436c.032-.113.128-.133.187-.19.059-.058.108-.105.03-.192-.074-.088-.33.004-.476-.105-.15-.113-.06-.38-.163-.494-.104-.109-.287-.066-.386-.104-.097-.034-.135.09-.194-.109-.061-.198-.063-.796-.143-1.02-.08-.222-.238-.015-.311-.235-.075-.221-.004-.574-.037-.908l-.15-.91c-.52.352-.867.463-1.428.56-.047 1.374-.176 2.183.291 3.706.465 1.52 1.408 2.42 2.68 3.706-1.68-1.256-2.479-2.279-2.98-3.587-.502-1.311-.407-2.407-.357-3.666zm8.919-.552c.129.008.285.038.376.097.09.061.188.107.27.19.206.21.36.462.428.751.044.186.05.422.064.64-.062-.2-.103-.409-.192-.589-.14-.285-.376-.56-.672-.688a.35.35 0 0 0-.214-.026c.023.041.063.076.065.133 0 .059-.012.174-.112.223-.16.078-.34.023-.464-.086a.414.414 0 0 1-.102-.46c.079-.193.375-.193.553-.185zm-1.621-.273c.017-.331.135-.609.433-.77.187-.107.392-.18.604-.216.207-.026.713-.008 1.018.132.232.105.39.27.597.394.205.12.35.2.546.337.3.211.475.44.682.576.1.067.24.058.374.098-.104.03-.24.064-.35.03a1.557 1.557 0 0 1-.438-.264 2.952 2.952 0 0 0-.497-.359c-.124-.072-.33-.158-.466-.246-.135-.09-.371-.283-.502-.349a1.618 1.618 0 0 0-.65-.125c-.256.008-.626.05-.822.228-.197.18-.271.336-.227.566.073-.084.123-.19.195-.254.154-.133.329-.139.52-.113.216.027.323.15.394.354-.047-.034-.135-.108-.204-.135a.496.496 0 0 0-.438.044c-.18.097-.13.24-.154.396-.013.076-.041.133-.061.198a.382.382 0 0 1-.18-.098c0 .076-.01.141.006.223.014.084.055.184.084.273-.126-.125-.256-.24-.335-.402a1.058 1.058 0 0 1-.13-.517zm.219-2.4c.09-.135.119-.344.174-.516-.021.217.021.453-.083.609-.105.158-.292.129-.443.176.118-.09.258-.131.352-.268zm-2.207 3.203c.119-.096.438-.019.676-.002l-.514.133c-.017.06-.01.123-.048.174-.04.051-.114.068-.171.104.006-.155-.062-.313.057-.409zm1.683-6.651c.143.075.32.178.449.18.124.004.158-.08.232-.131.115.38.25.797.448 1.142.083.145.136.079.2.224.063.145.09.439.15.626.059.187.137.32.207.483-.174-.25-.401-.566-.5-.773-.098-.207-.035-.225-.115-.421-.078-.198-.238-.504-.357-.756-.086.011-.19.026-.255.008-.065-.023-.054-.091-.112-.134-.06-.045-.158-.026-.24-.1-.081-.07-.1-.217-.107-.346zm-.767 1.875c.135-.012.299.022.425.019.126-.008.216-.04.325-.06-.021-.19-.002-.537-.176-.664-.115-.08-.578-.02-.701.008-.28.06-.604.227-.873.33.258-.18.48-.346.79-.44.189-.055.622-.128.814-.075.089.022.105.06.159.134.183.256.183.475.229.773.047.071.096.12.135.194a.91.91 0 0 1 .068.29c-.048-.07-.018-.156-.15-.207-.134-.052-.336-.004-.516.016.13.096.195.185.2.384.007.232-.19.4-.397.417-.285.022-.434-.041-.55-.285-.05-.107-.015-.236-.017-.341-.346.022-.34.011-.592.222.139.2.224.314.45.435.126.067.27.134.426.16.157.027.415.053.58.027a.634.634 0 0 0 .38-.187c.123-.112.135-.274.182-.403a1.203 1.203 0 0 1-.07.37c-.14.27-.38.353-.668.353-.275 0-.616-.063-.873-.17-.205-.084-.545-.324-.625-.533-.056-.143-.012-.318-.018-.477.285-.189.354-.143.689-.198.14-.027.239-.076.374-.088zm-1.655-1.28c.007-.113.021-.11.03-.166-.26-.069-.361.099-.514.41-.057.116 0 .187-.062.264-.06.076-.16.065-.257.139-.098.074-.196.215-.289.292-.189.156-.447.251-.667.358.15-.111.443-.279.538-.439.05-.086.042-.247.12-.325.078-.075.105-.13.205-.149.1-.019.061-.136.093-.229.032-.091.097-.158.165-.25.068-.094.156-.23.29-.283.136-.049.348.004.45-.023.103-.03.044-.105.119-.15s.219-.022.32-.072c.176-.084.26-.227.367-.377.015.326.01.561-.107.869-.131.346-.266.55-.641.763-.128.072-.257.098-.365.137.062-.086.152-.123.188-.256.034-.136.009-.4.017-.512zm6.059 1.593c-.177.015-.22-.012-.363.09l.232.361c-.006-.237.018-.285.133-.451zm-.465-.172c.246-.104.46-.19.73-.207.107-.008.274.008.383.015.094-.137.21-.244.256-.4.028-.104.015-.584-.038-.71-.146-.36-.29-.376-.495-.584-.146-.15-.152-.38-.197-.638-.015-.094-.062-.213-.084-.31a3.894 3.894 0 0 0-.857-.045c.148-.143.29-.271.334-.486a.957.957 0 0 0-.113-.667c-.121-.19-.315-.36-.494-.517-.178-.155-.436-.284-.604-.412.22-.077.444-.194.66-.235.56-.108 1.043.057 1.584.384.315.19.573.37.902.716.328.344.734.975 1.053 1.348.317.375.575.67.853.893.276.226.528.289.792.43l.412.439.335-.413.535.06.111-.601.49-.136-.079-.811.354-.252-.267-.504.27-.553-.352-.63.135-.607-.407-.348-.053-.646-.569-.217-.227-.56-.64-.009-.315-.417-.43.03-.48-.053-.27-.198-.395.26-.477-.248-.947.359.618-.537.64-.102.49-.126.662.218.582-.147.563.331.596-.03.293.525.591.067.32.58.372.205.1.746.333.315-.148.653.39.494-.363.53.39.331-.499.443.506.529-.613.2.398.566-.5.088.327.622-.563-.008.285.466-.62-.074.147.672-.468-.411-.159.814-.322-.585-.175.73-.397-.537.011.765-.439-.688c.091.39.073.817.33 1.185.793-.107 1.311-.307 1.92-.892.552-.533 1.214-1.644 1.394-2.35.204-.802.21-2.281.01-3.101-.195-.787-.447-1.163-.897-1.807-.43-.455-.853-.939-1.399-1.264C44.54 1 43.513.871 42.601.883a3.22 3.22 0 0 0-1.148.215c-.527.191-.95.611-1.487.818-.175.067-.315.068-.454-.004.135.27.28.391.619.49.244.07.825.026 1.227-.012.43-.039.654-.167 1.239-.16a2.68 2.68 0 0 1 1.271.368c.511.292.877.614 1.196 1.13.175.281.298.6.383.924.086.324.124.688.13 1.006a3.07 3.07 0 0 1-.097.888c-.182.669-.583 1.35-1.407 1.245-.504-.063-1.262-1.01-1.517-1.357-.515-.701-1.043-1.477-1.688-2.059a2.588 2.588 0 0 0-1.463-.65c-.992-.09-1.287.098-2.033.715.15.047.299.074.455.145.346.156.662.357.938.615.29.27.42.442.43.83.007.258-.204.464-.4.648-.117.114-.274.218-.371.307-.127.117-.285.246-.124.432.06.07.165.123.252.189.14.103.075.488-.108.592a.61.61 0 0 1-.713-.061c.246-.034.402-.068.395-.27-.002-.115-.15-.213-.297-.279-.35-.16-.614-.135-.963-.387-.353-.254-.36-.393-.455-.79-.17.015-.327.023-.555.097-.226.075-.478.254-.684.3-.52.11-.623.077-.907.007-.5-.131-1.15.09-1.8.3-.107.033-.543 0-.836.101a5.518 5.518 0 0 0-1.457.853c-.556.47-1.286 1.87-1.698 3.477-.045.49.095.818-.213 1.057-.308.24-.3.851-.405 1.023-.103.17-.225.094-.45.336-.222.24-.336.201-.331.654.195-.125.477-.273.724-.285.221-.008.222.283.785-.273.301-.299.881-.309 1.283-.439.402-.13 1.125-.402 1.851-1.212.724-.81 1.071-1.664 1.212-2.896.02.215.06.463-.033 1.065-.095.604-.296 1.28.13 2.094l.264.504c-.157-.215-.465-.566-.56-.816l-.21-.58c-.48.753-.59.887-1.256 1.425-.026.334-.032.682.076 1.002.108.32-.064.688.02.9.082.209.273.09.336.303s-.032.635.064.842c.1.207.337.082.453.15.115.066.154.158.215.246.063.088-.023.297.103.365.126.066.32.011.453.074.13.066.15.223.12.361-.033.141-.173.205-.234.348a.365.365 0 0 0 .02.373c.074.131.236.201.4.27.162.064.391.026.56.119.168.09.32.273.407.406a.542.542 0 0 1 .11.363c-.015.154-.06.3-.138.434-.074.135-.236.299.02.555.254.254.246.145.393.313-.017-.29-.135-.521-.049-.738.088-.217.35-.256.484-.352.14-.1.22-.232.326-.348 0 .148.015.309-.002.42-.033.227-.102.432.237.467.153.015.3-.082.46-.141-.085.148-.23.27-.254.45a.793.793 0 0 0 .13.56c.124.18.341.313.5.416.157.105.243.115.364.174.006.176-.03.362-.009.53a.962.962 0 0 0 .169.453c.098.141.252.22.398.32-.08-.187-.242-.364-.24-.56.002-.197.06-.334.252-.51.191-.174.639-.324.85-.494.156-.11.279-.26.355-.436.075-.164.055-.43.069-.576.069.205.079.27.103.486.021.217-.127.52-.19.68.229-.105.41-.293.51-.525.058.034.029.125.05.3.094-.091.199-.162.293-.25.094-.087.195-.163.243-.286.046-.121.027-.252-.007-.393-.035-.143-.193-.307-.279-.463-.084-.152.016-.305.01-.492-.17-.03-.314-.117-.512-.088-.195.03-.42.248-.62.252-.2 0-.315-.188-.479-.238-.165-.053-.33-.045-.495-.07.21-.2 1.021-.295 1.576-.385a9.787 9.787 0 0 1 1.47-.133c.221-.008.506.068.661.026.152-.045.12-.15.164-.264.13-.318.066-.604-.004-.924-.444-.053-.908-.115-1.356-.082-.438.034-.956.242-1.409.256-.392.015-.976-.074-1.312-.28-.413-.25-.73-.79-.845-.966-.184-.28-.416-.835-.559-1.087-.14-.254-.173-.324-.29-.43-.118-.106-.278-.113-.419-.17.161.015.336-.035.482.046.221.127.465.648.602.877.145-.486.111-.676.53-.95-.337.378-.347.665-.429 1.11.281.46.67 1.193 1.18 1.396.186.074.502.12.701.145.621.076 1.22-.119 1.828-.27.445-.11.897-.066 1.438-.034.183.012.616-.1.707-.283a.33.33 0 0 0-.024-.33c-.07-.105-.255-.157-.355-.253-.1-.098-.156-.211-.235-.315a6.49 6.49 0 0 1-1.062.115c.22-.09.433-.14.66-.23.237-.097.463-.219.676-.358.186-.123.303-.194.438-.335.134-.142.305-.289.404-.463.099-.173.114-.368.12-.583.004-.216-.005-.516-.088-.691-.084-.172-.243-.225-.372-.264-.127-.041-.216.063-.35.076-.133.015-.257.096-.451.008a1.678 1.678 0 0 1-.617-.55c-.196-.273-.335-.722-.534-1.067-.343-.596-.771-1.15-1.18-1.702a3.367 3.367 0 0 1-.101-.508c-.031-.322-.035-.656.065-.969.075-.24.188-.494.438-.592a.484.484 0 0 1 .317-.023c.09.03.179.135.142.252-.04.13-.127.134-.188.199a.693.693 0 0 0-.183.33c.11-.005.262-.012.354.01.12.03.229.11.29.28-.142-.126-.212-.185-.39-.188-.082-.002-.181.026-.27.04-.034.109-.054.244-.101.33-.05.084-.141.063-.176.16a.995.995 0 0 0-.02.392h.004zm1.242-.15c.056.024.075.027.146.08.069.053.165.105.22.23a.877.877 0 0 1 .04.4c-.048-.015-.113-.004-.163-.047s-.08-.14-.143-.18c-.065-.043-.117-.034-.188-.043.038.096.05.2.035.3-.035.204-.155.308-.351.33a1.053 1.053 0 0 1-.292-.03c.034.075.09.143.126.22.164-.023.285-.02.375-.061.087-.041.183-.135.296-.173.113-.04.213-.04.337-.06-.098.085-.161.168-.259.254l.214.623c.152.096.294.146.485.263.191.116.42.327.67.44.25.113.396.177.657.225.26.05.467.261.722.295.255.03.735.042.932.023.225-.023.516-.136.542-.382-.188.045-.475.004-.619-.349-.064-.156-.034-.447-.132-.63-.099-.188-.236-.247-.4-.476-.164-.229-.43-.589-.58-.895-.15-.308-.188-.653-.313-.928-.128-.274-.319-.495-.469-.708-.324-.463-.585-.777-1.12-1.011-.258-.112-.55-.143-.823-.213-.113.05-.268.103-.295.236a.535.535 0 0 0 .12.421c.159.166.394.342.486.603.061.168.076.73.025.883-.054.16-.178.257-.282.361zm.052 1.332c-.05.043-.087.087-.167.122-.08.038-.19.045-.295.07.148.232.305.467.447.71.143.242.266.51.4.765-.007-.147.003-.302-.018-.438-.021-.136-.083-.254-.145-.461-.06-.206-.135-.484-.222-.768zm-4-5.087c-.02.226.02.581.065.806.058.267.11.404.328.564.396.295.648.245.955.416.145.08.328.217.382.359.053.146-.036.3-.146.363.192.03.408-.19.318-.41-.045-.109-.255-.16-.32-.271a.41.41 0 0 1-.033-.335c.053-.202.454-.388.597-.546.218-.248.3-.453.177-.77-.172-.445-.842-.804-1.242-.979-.183-.08-.287-.084-.43-.129.293.174.602.31.75.691.124.321.016.443.022.721.002.13.172.195.248.275.064.073.06.125.008.223a.256.256 0 0 0-.111-.199c-.112-.08-.234-.063-.294-.224-.09-.248.09-.484-.112-.762-.15-.208-.353-.441-.625-.447a1.102 1.102 0 0 0-.36.058l-.183-.22-.005-.003c-.372-.34-.627-.62-1.147-.852-.522-.234-.78-.27-1.379-.256-.597.011-1.19.063-1.883.66-.694.6-2.48 2.888-2.914 3.177-.431.289-.527.388-1.068.388s-1.387-.765-1.42-1.722c-.032-.956-.045-1.297.619-2.45.666-1.151 1.869-1.505 2.763-1.624.895-.121 1.432.194 2.092.195.66.002 1.314-.111 1.508-.637-.095.056-.22.12-.577.1-.355-.018-.849-.43-1.402-.705-.555-.276-1.17-.309-1.961-.323-.79-.015-1.777.045-2.755.574-.978.525-1.645 1.085-2.213 2.12-.568 1.032-.652 1.874-.56 3.126.09 1.25.477 2.181 1.219 3.098.744.914 1.486 1.363 2.824 1.529l.283-1.242-.504.721.014-.803-.455.565-.202-.767-.367.615-.183-.855-.536.432.17-.705-.707.078.324-.49-.644.007.375-.653-.57-.091.454-.596-.698-.206.578-.555-.573-.467.448-.348-.42-.559.448-.52-.167-.685.379-.329.113-.786.426-.213.366-.611.677-.072.334-.553.68.034.642-.348.665.154.756-.228.562.13.731.108.705.564-1.08-.377-.545.26-.45-.273-.31.21-.55.056-.491-.03-.358.436-.732.008-.26.589-.65.228-.061.678-.467.366.155.637-.402.664.31.58-.305.53.404.264-.09.853.563.14.125.633.613-.063.38.434.47-.46c.858-.429 1.212-.669 1.882-1.392.76-.823 1.196-1.583 2.208-2.146.73-.405 1.321-.551 2.14-.408.765.132 1.023.593 1.589 1.077.061-.11.07-.14.169-.219-.03.143-.079.287-.093.423zM59.956 0C53.656 0 48.49 4.86 48 11.036l6.432 2.658a3.386 3.386 0 0 1 1.911-.59c.063 0 .125.004.188.008l2.861-4.142v-.059a4.528 4.528 0 0 1 4.524-4.524 4.53 4.53 0 0 1 4.524 4.527 4.53 4.53 0 0 1-4.524 4.525h-.105l-4.076 2.91c0 .053.004.105.004.16a3.391 3.391 0 0 1-3.39 3.395 3.412 3.412 0 0 1-3.33-2.727l-4.605-1.906C49.84 20.307 54.464 24 59.956 24c6.627 0 11.999-5.373 11.999-12 0-6.626-5.373-11.998-11.999-11.998zm-4.439 18.208l-1.472-.61c.262.543.714 1 1.313 1.25a2.551 2.551 0 0 0 3.337-3.323 2.548 2.548 0 0 0-3.255-1.413l1.523.63a1.877 1.877 0 0 1-1.445 3.466zm11.415-9.302a3.019 3.019 0 0 0-3.015-3.015 3.015 3.015 0 1 0 3.015 3.015zm-5.273-.004a2.264 2.264 0 1 1 4.53 0 2.267 2.267 0 0 1-2.265 2.265 2.263 2.263 0 0 1-2.265-2.265zM85.564 0c-.155 0-.315.008-.48.023-4.226.333-3.105 4.806-3.169 6.297-.077 1.093-.3 1.954-1.05 3.02-.886 1.051-2.128 2.75-2.716 4.52-.278.833-.41 1.685-.287 2.49a.424.424 0 0 0-.111.134c-.26.268-.45.601-.662.84-.2.198-.485.267-.797.4-.313.135-.658.268-.864.68-.09.188-.136.393-.132.601 0 .199.027.401.055.536.058.399.116.729.039.97-.248.68-.28 1.146-.105 1.485.174.334.535.469.939.6.81.2 1.91.136 2.774.6.926.467 1.866.67 2.616.47.526-.115.97-.463 1.208-.945.587-.003 1.23-.27 2.26-.334.698-.058 1.573.267 2.577.198.025.135.063.2.114.334l.003.003c.391.778 1.113 1.132 1.884 1.071.77-.06 1.592-.536 2.257-1.306.63-.764 1.682-1.083 2.377-1.502.348-.2.63-.47.65-.853.022-.4-.2-.812-.715-1.377v-.097l-.003-.003c-.17-.2-.25-.535-.338-.926-.085-.401-.182-.786-.492-1.046h-.003c-.059-.054-.122-.067-.187-.135a.355.355 0 0 0-.19-.064c.43-1.278.264-2.55-.173-3.693-.533-1.411-1.465-2.64-2.175-3.484-.796-1.005-1.576-1.957-1.56-3.369.026-2.152.236-6.132-3.544-6.138zm.528 3.405h.013c.213 0 .396.062.584.198.191.135.33.332.44.533.104.258.157.458.165.723 0-.018.006-.04.006-.058v.103c-.002-.008-.004-.015-.004-.022l-.004-.023a1.806 1.806 0 0 1-.15.706.95.95 0 0 1-.213.335c-.03-.015-.057-.03-.088-.042-.105-.045-.2-.064-.285-.133a1.483 1.483 0 0 0-.22-.066c.05-.06.146-.133.183-.198.053-.128.082-.264.088-.402v-.02a1.215 1.215 0 0 0-.061-.399c-.045-.135-.101-.201-.183-.334-.084-.066-.167-.132-.267-.132h-.016c-.093 0-.176.03-.262.132a.8.8 0 0 0-.205.334 1.182 1.182 0 0 0-.09.4v.019c.002.089.008.179.02.267-.193-.067-.438-.135-.607-.202a1.647 1.647 0 0 1-.018-.199v-.018a1.773 1.773 0 0 1 .15-.77c.082-.218.232-.405.43-.532a.986.986 0 0 1 .594-.2zm-2.961.059h.036a.7.7 0 0 1 .399.135c.146.128.264.287.344.464.09.2.14.401.153.667v.004c.007.134.006.201-.002.266v.08c-.03.008-.056.02-.083.023-.152.055-.274.135-.393.2.012-.089.013-.18.003-.267v-.015c-.012-.133-.04-.199-.082-.333a.613.613 0 0 0-.166-.267.248.248 0 0 0-.183-.064h-.021c-.071.008-.13.041-.186.132a.552.552 0 0 0-.12.27.946.946 0 0 0-.023.33v.016c.012.135.037.201.08.334.046.134.098.2.166.268.01.008.02.019.034.023-.07.057-.117.07-.176.136-.037.026-.08.06-.131.068a2.625 2.625 0 0 1-.275-.402 1.772 1.772 0 0 1-.155-.667 1.757 1.757 0 0 1 .08-.668c.055-.197.152-.379.283-.535.128-.133.26-.2.418-.2zm1.37 1.705c.332 0 .733.065 1.216.4.292.2.522.268 1.052.467h.003c.255.136.405.266.478.4v-.132a.57.57 0 0 1 .016.47c-.123.311-.516.644-1.064.843v.002c-.268.135-.5.333-.775.465-.276.135-.587.292-1.011.267a1.142 1.142 0 0 1-.448-.067 3.552 3.552 0 0 1-.322-.198c-.195-.135-.363-.332-.612-.465v-.004h-.005c-.4-.246-.616-.512-.686-.711-.07-.268-.005-.47.193-.6.224-.135.38-.271.483-.336.104-.074.143-.102.176-.131h.002v-.003c.169-.202.436-.47.839-.601.139-.038.294-.065.466-.065zm2.8 2.143c.358 1.417 1.196 3.475 1.735 4.472.286.534.855 1.66 1.102 3.024.156-.004.329.019.513.064.646-1.67-.546-3.467-1.089-3.965-.22-.202-.232-.335-.123-.335.589.534 1.365 1.571 1.646 2.756.129.535.159 1.104.021 1.67.067.027.135.06.205.067 1.032.534 1.413.938 1.23 1.537v-.043c-.061-.003-.12 0-.181 0h-.015c.15-.467-.182-.825-1.065-1.224-.915-.4-1.646-.336-1.77.465-.008.043-.013.066-.018.135-.068.022-.139.053-.209.064-.43.268-.662.669-.793 1.186-.13.533-.17 1.156-.205 1.87v.002c-.02.334-.17.838-.319 1.351-1.5 1.072-3.58 1.538-5.348.334a2.636 2.636 0 0 0-.402-.533 1.45 1.45 0 0 0-.275-.334c.182 0 .338-.03.465-.067a.614.614 0 0 0 .314-.334c.108-.267 0-.697-.345-1.163-.345-.467-.93-.995-1.788-1.52-.63-.4-.986-.87-1.15-1.396-.165-.534-.143-1.085-.015-1.645.245-1.07.873-2.11 1.274-2.763.107-.065.037.135-.408.974-.396.751-1.14 2.497-.122 3.854a8.122 8.122 0 0 1 .647-2.876c.564-1.278 1.743-3.504 1.836-5.267.048.037.217.135.289.201.218.133.38.333.59.465.21.201.477.335.876.335.039.003.075.008.11.008.412 0 .73-.134.996-.268.29-.133.521-.334.74-.4h.005c.467-.135.836-.402 1.045-.7zm2.185 8.957c.037.6.343 1.245.882 1.377.588.134 1.434-.333 1.79-.765l.212-.008c.315-.008.577.011.847.267l.003.003c.208.198.305.53.39.875.086.401.155.78.41 1.066.485.527.644.906.635 1.14l.003-.008v.02l-.003-.012c-.015.262-.185.396-.498.595-.63.4-1.745.712-2.456 1.57-.618.736-1.371 1.138-2.036 1.19-.664.053-1.237-.2-1.574-.897l-.005-.003c-.21-.401-.12-1.025.056-1.69.176-.668.428-1.345.463-1.898.037-.714.076-1.335.195-1.814.12-.465.308-.797.641-.984l.045-.022zm-10.814.049h.01c.054 0 .106.004.158.015.376.055.706.333 1.023.752l.91 1.664.002.003c.243.533.754 1.064 1.19 1.638.433.598.77 1.13.728 1.57v.007c-.057.744-.479 1.148-1.125 1.294-.645.135-1.52.002-2.394-.464-.968-.536-2.118-.469-2.857-.602-.369-.066-.61-.2-.723-.4-.11-.2-.113-.602.123-1.23v-.003l.002-.003c.117-.334.03-.753-.027-1.12-.055-.4-.083-.708.043-.94.16-.333.396-.398.69-.532.294-.135.64-.202.915-.469h.002v-.003c.256-.268.445-.6.668-.838.19-.2.38-.336.663-.336zm7.159-9.073c-.435.201-.945.535-1.488.535-.542 0-.97-.267-1.28-.466-.154-.134-.28-.268-.373-.335-.164-.133-.144-.334-.074-.334.109.015.129.135.199.201.096.066.215.2.36.333.292.2.68.467 1.167.467.485 0 1.053-.267 1.398-.466.194-.135.444-.334.647-.467.156-.136.15-.268.28-.268.128.016.033.135-.148.333-.18.135-.46.335-.69.468zm-1.082-1.584V5.64c-.006-.02.013-.042.029-.05.074-.043.18-.027.26.004.063 0 .16.067.15.135-.006.049-.085.066-.135.066-.055 0-.092-.043-.141-.068-.052-.02-.146-.008-.163-.065zm-.551 0c-.02.058-.113.05-.166.066-.047.027-.086.068-.14.068-.05 0-.13-.019-.136-.068-.01-.066.088-.133.15-.133.08-.03.184-.047.259-.004.019.008.036.03.03.05v.023h.003z"
     id="path8"
     style="opacity:0.2" />
</svg>
