<?xml version="1.0" encoding="UTF-8" standalone="no"?>
<!-- Created with Inkscape (http://www.inkscape.org/) -->

<svg
   xmlns:dc="http://purl.org/dc/elements/1.1/"
   xmlns:cc="http://creativecommons.org/ns#"
   xmlns:rdf="http://www.w3.org/1999/02/22-rdf-syntax-ns#"
   xmlns:svg="http://www.w3.org/2000/svg"
   xmlns="http://www.w3.org/2000/svg"
   xmlns:sodipodi="http://sodipodi.sourceforge.net/DTD/sodipodi-0.dtd"
   xmlns:inkscape="http://www.inkscape.org/namespaces/inkscape"
   width="600"
   height="600"
   viewBox="0 0 158.75 158.75"
   version="1.1"
   id="svg8"
   inkscape:version="0.92.4 (5da689c313, 2019-01-14)"
   sodipodi:docname="favicon.svg">
  <defs
     id="defs2">
    <inkscape:perspective
       sodipodi:type="inkscape:persp3d"
       inkscape:vp_x="0 : 48.000001 : 1"
       inkscape:vp_y="0 : 1000 : 0"
       inkscape:vp_z="96.000003 : 48.000001 : 1"
       inkscape:persp3d-origin="48.000001 : 32.000001 : 1"
       id="perspective35" />
  </defs>
  <sodipodi:namedview
     id="base"
     pagecolor="#ffffff"
     bordercolor="#666666"
     borderopacity="1.0"
     inkscape:pageopacity="0.0"
     inkscape:pageshadow="2"
     inkscape:zoom="0.98994949"
     inkscape:cx="268.87974"
     inkscape:cy="324.30747"
     inkscape:document-units="mm"
     inkscape:current-layer="layer1"
     showgrid="false"
     inkscape:window-width="1920"
     inkscape:window-height="1017"
     inkscape:window-x="-8"
     inkscape:window-y="-8"
     inkscape:window-maximized="1"
     units="px" />
  <metadata
     id="metadata5">
    <rdf:RDF>
      <cc:Work
         rdf:about="">
        <dc:format>image/svg+xml</dc:format>
        <dc:type
           rdf:resource="http://purl.org/dc/dcmitype/StillImage" />
        <dc:title></dc:title>
      </cc:Work>
    </rdf:RDF>
  </metadata>
  <g
     inkscape:label="Layer 1"
     inkscape:groupmode="layer"
     id="layer1"
     transform="translate(0,-138.25001)"
     style="display:inline">
    <path
       id="path24"
       d="m 22.583211,295.47195 c -1.563471,-1.04454 -2.951762,-2.32428 -4.111988,-3.80136 -1.265988,-1.53097 -2.439426,-3.14049 -3.516998,-4.80629 -2.53198,-3.70253 -4.511941,-7.75137 -5.8837025,-12.01845 -1.6527269,-4.96489 -2.4559392,-9.71869 -2.4559392,-14.36917 0,-5.18929 1.1238691,-9.71785 3.3120497,-13.51916 1.619673,-2.97516 4.032655,-5.46388 6.941447,-7.21211 2.809649,-1.75206 6.082039,-2.71078 9.387492,-2.77679 1.156838,0 2.412965,0.16859 3.735154,0.4977 0.958622,0.25997 2.115485,0.70061 3.536838,1.22328 1.817993,0.69916 2.809633,1.12185 3.140177,1.22349 1.057809,0.38996 1.950209,0.56496 2.64436,0.56496 0.528895,0 1.289124,-0.17016 2.13202,-0.43112 0.479311,-0.16503 1.38829,-0.45526 2.677416,-1.02571 1.275905,-0.4551 2.287374,-0.85854 3.090599,-1.15687 1.223056,-0.36554 2.406371,-0.69981 3.470724,-0.85877 1.289116,-0.19498 2.568343,-0.25997 3.794673,-0.16503 2.346844,0.16503 4.495379,0.65897 6.412568,1.38848 3.371568,1.35538 6.09196,3.47044 8.121506,6.47852 -0.859429,0.52164 -1.652751,1.14427 -2.396475,1.81792 -1.609736,1.4217 -2.974908,3.10715 -4.065707,4.97474 -1.421348,2.54513 -2.14855,5.42092 -2.128721,8.32975 0.05022,3.58006 0.958633,6.72651 2.776601,9.45356 1.279196,1.98321 2.988103,3.68253 5.070585,5.07725 1.024635,0.69926 1.923734,1.17209 2.776558,1.48747 -0.396805,1.23901 -0.832933,2.44627 -1.338717,3.63569 -1.14698,2.66751 -2.512139,5.22281 -4.131815,7.63562 -1.427959,2.08302 -2.551785,3.63627 -3.404618,4.66089 -1.32879,1.58654 -2.611318,2.77673 -3.900435,3.62618 -1.42134,0.9441 -3.090573,1.44103 -4.799523,1.44103 -1.156842,0.0165 -2.313799,-0.0316 -3.417824,-0.42085 -0.958607,-0.31945 -1.903941,-0.66587 -2.829458,-1.07171 -0.968443,-0.44834 -1.970049,-0.82297 -2.99144,-1.12193 -1.256075,-0.32498 -2.54519,-0.49343 -3.847547,-0.48682 -1.32219,0 -2.611305,0.15677 -3.834326,0.47645 -1.024652,0.28952 -2.016321,0.64608 -2.998039,1.07646 -1.388294,0.5794 -2.297291,0.96 -2.826172,1.12135 -1.070998,0.32062 -2.168367,0.51271 -3.27239,0.5794 -1.718843,0 -3.318678,-0.49622 -4.911908,-1.48801 z m 22.655573,-61.0194 c -2.247707,1.12329 -4.383035,1.60061 -6.521658,1.44176 -0.330539,-2.13528 0,-4.33015 0.892464,-6.7331 0.793297,-2.04961 1.851046,-3.90048 3.305447,-5.55337 1.520506,-1.71916 3.338507,-3.13984 5.387888,-4.16439 2.181595,-1.12557 4.264034,-1.71929 6.247291,-1.81845 0.264462,2.24732 0,4.46228 -0.82641,6.84213 -0.753597,2.11575 -1.877491,4.06581 -3.305448,5.81772 -1.43787,1.71865 -3.222818,3.14034 -5.242439,4.16492 z"
       inkscape:connector-curvature="0"
       style="fill:#000000;fill-opacity:1;stroke-width:2.46254897" />
    <path
       id="path909"
       d="m 0,149.65688 32.2461,-4.46162 v 31.25725 H 0 m 36.211536,-31.75662 43.163469,-6.44587 v 37.70312 H 36.211536 M 0,179.92189 h 32.2461 v 31.25725 L 0,206.70764 m 36.211536,-26.78575 h 43.163469 v 37.70312 l -42.664068,-5.95638"
       inkscape:connector-curvature="0"
       style="fill:#0078d6;fill-opacity:1;stroke-width:0.26458332" />
    <path
       id="path934"
       d="m 120.34757,138.25002 c -0.51256,0 -1.04161,0.025 -1.58398,0.0751 -13.9781,1.10112 -10.27111,15.89605 -10.48274,20.82654 -0.2546,3.61439 -0.992,6.46166 -3.47551,9.99007 -2.92658,3.47554 -7.0337,9.09381 -8.981442,14.9503 -0.919255,2.75127 -1.355809,5.56877 -0.949125,8.23079 -0.128984,0.11245 -0.251343,0.22498 -0.367078,0.4462 -0.859762,0.88612 -1.48478,1.98737 -2.189139,2.77439 -0.658038,0.6574 -1.603828,0.88362 -2.635568,1.3227 -1.034989,0.44994 -2.175915,0.88988 -2.857126,2.25208 -0.297587,0.62116 -0.449692,1.29957 -0.436569,1.98735 0,0.65743 0.08873,1.32609 0.181851,1.77253 0.191851,1.31946 0.383575,2.41068 0.128985,3.20758 -0.820142,2.24871 -0.922629,3.78975 -0.347205,4.91073 0.575426,1.10486 1.769169,1.55092 3.105145,1.98737 2.681862,0.66116 6.3161,0.4462 9.176531,1.98086 3.06216,1.54431 6.1706,2.21885 8.65074,1.55418 1.73941,-0.37996 3.20766,-1.53106 3.99469,-3.12497 1.94112,-0.01 4.06744,-0.88988 7.4735,-1.10485 2.3115,-0.19123 5.20501,0.88364 8.52508,0.6574 0.0825,0.44621 0.20835,0.65867 0.37695,1.10487 l 0.01,0.01 c 1.29298,2.57268 3.68053,3.74339 6.23012,3.54166 2.54959,-0.19872 5.26453,-1.77251 7.46358,-4.31881 2.08664,-2.52979 5.56544,-3.58465 7.86371,-4.97021 1.15086,-0.65742 2.08003,-1.55094 2.14615,-2.82075 0.0762,-1.32272 -0.65803,-2.68516 -2.36109,-4.55355 v -0.3212 l -0.01,-0.01 c -0.56217,-0.66116 -0.82677,-1.76913 -1.11773,-3.06208 -0.28109,-1.32608 -0.6018,-2.59917 -1.62697,-3.45905 h -0.01 c -0.1951,-0.17873 -0.4067,-0.22122 -0.62168,-0.4462 -0.18522,-0.12618 -0.40006,-0.20497 -0.62828,-0.21122 1.42526,-4.22608 0.87301,-8.4324 -0.57206,-12.21553 -1.76254,-4.66738 -4.84454,-8.72824 -7.1924,-11.52249 -2.63226,-3.32345 -5.21162,-6.47154 -5.16201,-11.14081 0.0888,-7.11643 0.78378,-20.28097 -11.71951,-20.30084 z m 1.74933,11.2599 h 0.0425 c 0.7044,0 1.30952,0.20499 1.93119,0.65493 0.63168,0.44618 1.09124,1.0986 1.45174,1.76264 0.3472,0.85614 0.52242,1.51779 0.54893,2.39406 0,-0.0625 0.02,-0.13246 0.02,-0.19498 v 0.34371 c -0.007,-0.025 -0.0132,-0.0499 -0.0132,-0.0751 l -0.0132,-0.0749 c -0.007,0.80366 -0.17524,1.59731 -0.49606,2.3347 -0.15545,0.4137 -0.39346,0.79365 -0.70442,1.10737 -0.0963,-0.0499 -0.18847,-0.10005 -0.29096,-0.13874 -0.3472,-0.14867 -0.65804,-0.21122 -0.9425,-0.43994 -0.23485,-0.0875 -0.47956,-0.16874 -0.72416,-0.21873 0.16205,-0.19496 0.47957,-0.43993 0.60179,-0.65491 0.17524,-0.42369 0.27122,-0.87363 0.29098,-1.32933 v -0.0625 c 0.007,-0.44618 -0.06,-0.89612 -0.20173,-1.3227 -0.14883,-0.44619 -0.33396,-0.66491 -0.60517,-1.10485 -0.27771,-0.21873 -0.55218,-0.4362 -0.88288,-0.4362 h -0.0524 c -0.3076,0 -0.58205,0.10005 -0.8664,0.4362 -0.31407,0.3112 -0.54892,0.68491 -0.67791,1.10485 -0.17522,0.41994 -0.27771,0.87364 -0.29759,1.3227 v 0.0625 c 0.007,0.29496 0.0263,0.59242 0.0663,0.88364 -0.63816,-0.22122 -1.4484,-0.4462 -2.00725,-0.66741 -0.0337,-0.21497 -0.0525,-0.4362 -0.06,-0.65742 v -0.0625 c -0.0262,-0.87364 0.14223,-1.73952 0.49606,-2.54304 0.27122,-0.72365 0.76715,-1.34258 1.42194,-1.76252 0.56543,-0.4262 1.25329,-0.65741 1.96428,-0.65741 z m -9.79492,0.19498 h 0.11874 c 0.46956,0 0.89288,0.15875 1.31944,0.44619 0.48281,0.42619 0.87301,0.95238 1.1376,1.53767 0.29758,0.65743 0.46631,1.32596 0.50593,2.20559 v 0.0132 c 0.0225,0.44369 0.02,0.66491 -0.007,0.87989 v 0.26496 c -0.0987,0.025 -0.18523,0.0625 -0.27447,0.0749 -0.50268,0.18248 -0.90613,0.44619 -1.2996,0.66116 0.04,-0.2937 0.0425,-0.59242 0.01,-0.88239 v -0.0499 c -0.04,-0.43993 -0.12898,-0.6574 -0.27121,-1.10111 -0.1025,-0.33744 -0.29097,-0.63865 -0.54893,-0.88362 -0.16211,-0.14867 -0.38033,-0.22498 -0.60518,-0.21122 h -0.07 c -0.23485,0.025 -0.42995,0.13626 -0.61505,0.43618 -0.21159,0.25497 -0.3472,0.56493 -0.39682,0.89239 -0.0887,0.35745 -0.11624,0.72365 -0.0762,1.09486 v 0.0499 c 0.04,0.44619 0.12248,0.66491 0.26783,1.10485 0.14887,0.44369 0.32084,0.66116 0.54568,0.88614 0.0362,0.025 0.07,0.0625 0.11248,0.0749 -0.23147,0.18873 -0.38695,0.23121 -0.58204,0.44994 -0.12249,0.0875 -0.2646,0.19872 -0.4332,0.22496 -0.34395,-0.41369 -0.64816,-0.85988 -0.90938,-1.32945 -0.31746,-0.69491 -0.48281,-1.44831 -0.51256,-2.20558 -0.0562,-0.7474 0.0362,-1.49468 0.26459,-2.20896 0.18185,-0.65117 0.50269,-1.25334 0.93588,-1.76926 0.42332,-0.43996 0.85976,-0.66118 1.38227,-0.66118 z m 4.53371,5.64151 c 1.09461,0 2.42062,0.21498 4.01783,1.31933 0.96887,0.66116 1.7295,0.88989 3.48213,1.54768 h 0.01 c 0.84326,0.44994 1.33927,0.87989 1.58065,1.31945 v -0.43369 c 0.24135,0.48619 0.25797,1.05111 0.0524,1.55416 -0.40668,1.02862 -1.70633,2.1296 -3.51848,2.78777 v 0.007 c -0.88627,0.44619 -1.65675,1.10112 -2.56282,1.53781 -0.91275,0.44619 -1.94443,0.96487 -3.34655,0.88239 -0.50268,0.025 -1.00862,-0.0499 -1.48147,-0.22123 -0.3637,-0.19873 -0.7209,-0.41621 -1.06486,-0.65493 -0.64479,-0.44618 -1.20034,-1.0986 -2.02379,-1.53779 v -0.0132 h -0.0162 c -1.32274,-0.81364 -2.03702,-1.69315 -2.2685,-2.35118 -0.22823,-0.88614 -0.0162,-1.55092 0.63829,-1.98413 0.74078,-0.44619 1.2566,-0.89613 1.5972,-1.1111 0.34396,-0.24497 0.47294,-0.33746 0.58205,-0.43368 h 0.007 v -0.01 c 0.55881,-0.66741 1.44179,-1.55092 2.77445,-1.9875 0.45969,-0.12501 0.97225,-0.21497 1.541,-0.21497 z m 9.2559,7.08659 c 1.18722,4.68575 3.95832,11.49124 5.7407,14.79156 0.94575,1.76589 2.82737,5.48603 3.64417,9.99994 0.51581,-0.0132 1.08799,0.0625 1.69641,0.21122 2.13623,-5.52577 -1.80553,-11.46487 -3.60116,-13.11503 -0.73078,-0.66491 -0.76716,-1.10736 -0.4067,-1.10736 1.94775,1.76589 4.51386,5.19833 5.44309,9.11706 0.42656,1.76915 0.5258,3.65078 0.07,5.52241 0.22159,0.0875 0.44644,0.20122 0.67791,0.22121 3.41268,1.76578 4.6726,3.10186 4.06744,5.08259 v -0.14254 c -0.20172,-0.01 -0.39682,0 -0.59855,0 h -0.0499 c 0.49932,-1.54431 -0.60179,-2.72815 -3.52182,-4.04759 -3.02576,-1.32271 -5.44307,-1.11112 -5.85643,1.53779 -0.0225,0.14254 -0.04,0.21872 -0.0562,0.44618 -0.22484,0.0751 -0.45969,0.17499 -0.69116,0.21122 -1.42195,0.88614 -2.18914,2.21222 -2.62233,3.92525 -0.42995,1.76252 -0.56217,3.82274 -0.67791,6.18045 v 0.01 c -0.0699,1.10486 -0.56543,2.77114 -1.05486,4.46755 -4.96029,3.54491 -11.83857,5.08595 -17.68841,1.10485 -0.36708,-0.63867 -0.81352,-1.23734 -1.32935,-1.76252 -0.24472,-0.41369 -0.55555,-0.78365 -0.90938,-1.10485 0.60179,0 1.11773,-0.10004 1.53769,-0.22122 0.47943,-0.22123 0.84989,-0.62118 1.03836,-1.10485 0.3572,-0.88239 0,-2.30495 -1.14085,-3.84589 -1.14085,-1.54429 -3.07869,-3.29032 -5.91267,-5.02971 -2.08331,-1.31946 -3.26056,-2.87699 -3.80289,-4.6164 -0.54568,-1.76589 -0.47294,-3.58791 -0.05,-5.43978 0.81015,-3.53829 2.88689,-6.97748 4.21294,-9.13682 0.35383,-0.21496 0.12249,0.4462 -1.3492,3.22084 -1.30951,2.48342 -3.77312,8.25716 -0.40345,12.74458 0.12562,-3.27045 0.85314,-6.49791 2.13955,-9.5105 1.86507,-4.22607 5.76385,-11.58724 6.0714,-17.42048 0.15873,0.12502 0.71753,0.44619 0.95562,0.66741 0.72091,0.43994 1.2566,1.1011 1.95104,1.53768 0.69779,0.66491 1.57737,1.10735 2.89681,1.10735 0.12899,0.01 0.24797,0.025 0.36708,0.025 1.35912,0 2.4107,-0.44369 3.29364,-0.88614 0.95899,-0.44244 1.72286,-1.10485 2.44708,-1.3227 h 0.0165 c 1.54429,-0.44619 2.76452,-1.32945 3.45566,-2.31483 z m 7.2288,29.62287 c 0.12254,1.98737 1.13422,4.11697 2.91663,4.55353 1.94444,0.44369 4.74205,-1.10111 5.9226,-2.5298 l 0.69779,-0.025 c 1.04162,-0.025 1.90804,0.0375 2.8009,0.88239 l 0.01,0.01 c 0.68778,0.65742 1.00862,1.75589 1.29298,2.89676 0.28109,1.32607 0.50931,2.5794 1.3525,3.52516 1.60715,1.74264 2.13294,2.99597 2.10316,3.76975 l 0.01,-0.025 v 0.0625 l -0.01,-0.0375 c -0.0499,0.86614 -0.61178,1.30958 -1.6468,1.96762 -2.08333,1.32607 -5.77379,2.35444 -8.12496,5.19182 -2.04364,2.43706 -4.5337,3.76651 -6.73276,3.93837 -2.19575,0.17497 -4.09059,-0.66118 -5.205,-2.9695 l -0.0165,-0.01 c -0.6944,-1.32596 -0.39682,-3.38945 0.18523,-5.58853 0.58205,-2.20896 1.41533,-4.4478 1.53107,-6.27643 0.12254,-2.36106 0.25134,-4.41467 0.64479,-5.99858 0.39683,-1.53781 1.0185,-2.63566 2.11971,-3.25396 l 0.14883,-0.0749 z m -35.76369,0.16256 h 0.0337 c 0.17522,0 0.3472,0.0132 0.51918,0.0499 1.24334,0.18246 2.33464,1.10109 3.38292,2.4868 l 3.00924,5.50265 0.01,0.01 c 0.80352,1.76252 2.49338,3.51855 3.93187,5.41667 1.43517,1.97749 2.54628,3.74002 2.4107,5.1917 v 0.025 c -0.18848,2.46031 -1.58399,3.79626 -3.72022,4.27907 -2.13292,0.44619 -5.02643,0.007 -7.91993,-1.5343 -3.201044,-1.77252 -7.003934,-1.55092 -9.447703,-1.99074 -1.220215,-0.21873 -2.020485,-0.66491 -2.390862,-1.32607 -0.367077,-0.65743 -0.373701,-1.9875 0.406697,-4.06748 v -0.01 l 0.0066,-0.01 c 0.38695,-1.10485 0.09874,-2.49004 -0.08873,-3.70026 -0.181851,-1.32608 -0.274465,-2.34458 0.14223,-3.10848 0.529058,-1.10485 1.309517,-1.31944 2.278428,-1.76263 0.975498,-0.44619 2.119699,-0.66742 3.029091,-1.55093 h 0.0066 v -0.01 c 0.846514,-0.88614 1.471544,-1.98736 2.208973,-2.77114 0.628294,-0.66492 1.256616,-1.1111 2.192446,-1.1111 z m 23.67381,-30.00654 c -1.43849,0.66491 -3.12498,1.76915 -4.92061,1.76915 -1.79232,0 -3.20766,-0.88239 -4.22947,-1.54093 -0.51256,-0.44369 -0.92588,-0.88613 -1.23672,-1.10735 -0.5423,-0.44245 -0.47619,-1.10485 -0.24472,-1.10485 0.36046,0.0499 0.42657,0.44619 0.65804,0.66491 0.31746,0.21871 0.71091,0.65741 1.19372,1.1011 0.96225,0.66116 2.24867,1.54431 3.8558,1.54431 1.60383,0 3.48212,-0.88365 4.62299,-1.54105 0.64479,-0.44621 1.47155,-1.10487 2.14285,-1.54431 0.51593,-0.45244 0.49268,-0.88614 0.92263,-0.88614 0.42657,0.0499 0.11245,0.44371 -0.48607,1.10112 -0.59854,0.44618 -1.52446,1.10736 -2.28174,1.54767 v -0.003 z m -3.57803,-5.23844 v -0.0749 c -0.02,-0.0625 0.0425,-0.13874 0.0963,-0.16503 0.24471,-0.14255 0.59517,-0.0875 0.85976,0.0132 0.20835,0 0.52906,0.22122 0.49606,0.4462 -0.02,0.16255 -0.28109,0.21871 -0.44644,0.21871 -0.18185,0 -0.30421,-0.14254 -0.46632,-0.22496 -0.17197,-0.0625 -0.48281,-0.025 -0.53905,-0.21497 z m -1.82208,0 c -0.0662,0.19123 -0.3737,0.16256 -0.54893,0.21873 -0.15536,0.0875 -0.28434,0.22496 -0.45969,0.22496 -0.1686,0 -0.43319,-0.0625 -0.45307,-0.22496 -0.03,-0.21873 0.29097,-0.43995 0.49606,-0.43995 0.26784,-0.10005 0.60842,-0.15495 0.85652,-0.0132 0.0625,0.025 0.11873,0.10004 0.0987,0.16503 v 0.0749 h 0.01 z"
       inkscape:connector-curvature="0"
       style="fill:#fcc624;fill-opacity:1;stroke-width:0.26458335" />
    <path
       id="path959"
       d="m 96.150657,264.5898 c -0.73082,0.0375 -1.38567,0.46621 -1.71637,1.11741 -0.38035,0.69746 -1.286455,0.79995 -1.709767,0.66497 -0.694454,-0.23123 -1.590695,-0.39372 -2.460463,0.22498 -0.869694,0.61871 -1.805657,0.14882 -1.637007,-0.98243 0.162124,-1.12493 0.568838,-2.13311 1.650229,-2.74496 2.361259,-1.3559 0.717579,-2.29835 2.010708,-3.6675 1.30299,-1.36254 1.015309,-1.77589 0.968937,-3.63452 -4.385177,-0.66121 -6.872102,-1.92474 -9.643435,-5.39376 -2.774631,-3.46254 -3.852735,-6.3166 -4.137154,-10.66206 -0.290982,-4.35548 -0.03625,-7.17302 1.842042,-10.78444 1.878426,-3.598 3.862672,-5.33426 7.282188,-7.13665 3.422827,-1.81225 6.782812,-2.23886 9.884842,-2.18599 3.105353,0.0499 5.172283,0.275 6.925033,1.27992 1.75606,1.00244 3.35999,2.26199 4.37856,2.26536 0.7937,0.0499 1.57749,-0.175 2.22567,-0.63496 0.13224,3.37315 -2.90361,3.66413 -5.61542,3.73701 -2.7118,0.0751 -4.37857,-1.04868 -6.878723,-0.63497 -2.49353,0.42373 -6.587694,1.55753 -8.581864,5.02669 -1.994158,3.4724 -2.063616,4.69605 -1.894952,7.60961 0.162123,2.90357 2.665502,5.07305 4.080933,5.09955 1.415433,0.0251 1.729603,-0.38747 2.969763,-1.18992 1.23679,-0.81369 7.553353,-8.63157 9.702953,-10.38433 2.15952,-1.75601 4.28597,-2.30171 6.58109,-2.33146 2.29841,-0.0251 2.88046,0.0499 4.73904,0.81369 1.85196,0.75746 2.98959,2.15624 4.48439,3.00942 0.76058,-0.4462 1.24017,-1.12117 1.93134,-1.63701 2.51337,-1.82551 3.80975,-2.3216 6.78942,-2.03387 1.71306,0.17248 3.86597,1.14742 5.15904,2.26872 2.2918,1.99751 4.18676,4.76545 5.71462,6.87543 1.19055,1.64353 2.59606,3.60803 4.60345,4.22312 2.17937,0.66494 3.82629,-2.15624 4.06771,-3.73377 0.14225,-0.89244 0.32086,-1.67327 0.32086,-2.64894 0,-0.98245 -0.0987,-2.16613 -0.38035,-3.19131 -0.29761,-1.01494 -0.73421,-1.98087 -1.29638,-2.8738 -0.85319,-1.37579 -2.24882,-2.81107 -3.6907,-3.54527 -0.81357,-0.41374 -2.73165,-1.16744 -3.93873,-1.19367 -1.48157,-0.0375 -2.60928,0.4662 -3.9751,0.5587 -1.65355,0.11245 -4.61668,0.48247 -5.90644,-0.7937 -0.83007,-0.81369 -0.93594,-1.35914 -1.07143,-2.41746 0.36048,0.30372 0.87307,0.49622 1.32614,0.53872 1.03518,0.0875 2.00078,-0.75745 2.84077,-1.25004 0.69446,-0.40623 1.66677,-1.12494 2.57291,-1.48816 2.32819,-0.94245 5.1855,-0.91994 7.63935,-0.66121 1.96771,0.19873 4.52408,1.07118 6.25037,2.05374 1.73952,0.9787 3.4096,2.63572 4.62991,4.19335 1.5411,1.96438 2.3844,3.65102 2.93999,6.09823 0.71432,3.12516 0.91606,7.82125 0.05,10.91005 -0.67795,2.42733 -2.93337,6.15445 -4.85147,7.98324 -1.89496,1.80899 -4.08425,2.68206 -6.56786,3.15828 0.0987,0.49247 0.10873,0.96244 0.23486,1.37578 0.18524,0.5887 0.53909,1.23992 1.25669,1.03494 0.28436,-0.0875 0.43985,-0.15495 0.81357,0.17498 0.38036,0.33123 0.18524,1.60402 -0.87969,2.18273 -0.54234,0.28499 -1.10455,0.34747 -1.96771,0.36997 -1.05493,0.0375 -2.11322,-0.0132 -3.15164,-0.15246 -0.93594,-0.15495 -1.49149,-0.90245 -2.52991,-1.02119 -1.60393,-0.18248 -2.82756,-1.33941 -4.11732,-2.16286 -0.53572,-0.34372 -0.72096,-0.34372 -1.02843,-0.52247 0.16861,0.50997 0.39022,1.03869 0.49934,1.53791 0.11248,0.48247 0.0662,0.94243 0.1225,1.33603 0.0625,0.39373 0.17199,0.69746 0.23149,1.02119 0.2546,0.22498 0.3406,0.57246 0.77057,0.68494 0.42997,0.11262 1.10455,-0.0623 1.54771,-0.12501 0.44647,-0.0625 0.74083,-0.29748 1.08468,-0.23123 0.34723,0.0623 0.67471,0.31748 0.96569,0.54871 0.29098,0.23123 0.54234,0.26498 0.77382,0.83995 0.23149,0.5887 0.44647,1.77587 0.48285,2.56959 0.03,0.79368 -0.06,1.50463 -0.29436,2.14297 -0.23148,0.62495 -0.44647,0.90243 -1.08143,1.53115 -0.63496,0.62871 -1.67338,1.53777 -2.7085,2.18274 0.19187,0.27749 0.27448,0.53622 0.57209,0.83994 0.29761,0.31123 0.91606,0.65121 1.18717,0.97494 0.28111,0.32372 0.42335,0.5562 0.42335,0.91619 0.04,0.43371 -0.07,0.86619 -0.3076,1.23367 -0.73746,0.98868 -1.59731,1.16368 -2.65558,1.62713 0.17861,1.10494 0.3241,1.89164 0.0662,2.99619 -0.0987,0.45248 -0.33735,1.47167 -0.89294,1.73615 -0.55896,0.26498 -1.62708,0.13494 -2.30834,0.24497 -0.67795,0.10005 -1.05493,0.20874 -1.58408,0.31123 -0.32411,0.46623 -0.80032,0.98244 -0.96231,1.39566 -0.16211,0.41996 -0.11248,0.56871 0.02,0.98869 0.13887,0.42622 0.61184,1.04492 0.74408,1.55102 0.129,0.49621 0.16199,1.02868 0.0362,1.53116 -0.12561,0.49621 -0.38697,0.94868 -0.76057,1.30967 -0.4266,0.4462 -1.26331,0.79368 -1.68331,1.14366 -0.41334,0.36747 -0.83332,0.40747 -0.71757,1.00244 0.15549,0.81994 1.35258,2.13634 2.21573,2.46046 0.61183,0.18124 1.2633,0.12865 1.84204,-0.13626 -0.0463,0.69119 -0.64483,1.17116 -1.04168,1.63377 1.06493,-0.31125 2.1033,-0.89244 2.82425,-1.66678 -0.22161,0.6712 -0.99206,1.74938 -2.13307,2.69857 -1.14093,0.9487 -1.1343,0.75747 -1.70975,1.13743 1.03843,0.20123 2.00408,0.14866 2.81101,0.007 -0.65145,0.36748 -1.37574,0.60246 -2.11983,0.68496 -0.95569,0.0999 -1.54771,0.0251 -2.41087,-0.18124 -0.86319,-0.20872 -1.65023,-0.99493 -2.69195,-1.53778 0.0987,0.39374 0.17524,0.85995 0.61183,1.25992 0.44973,0.39371 1.10781,0.60247 1.81559,0.93619 -0.89957,-0.0999 -1.84536,-0.12501 -2.72504,-0.31748 -0.65808,-0.15495 -1.09793,-0.30373 -1.58078,-0.54246 -0.47622,-0.23123 -0.84332,-0.58247 -1.26992,-0.87369 0.20174,0.38748 0.26123,0.84619 0.60846,1.16365 0.34398,0.32374 0.90944,0.44624 1.36252,0.65748 -0.47296,-0.0132 -0.92931,0.10004 -1.42204,-0.0375 -0.52909,-0.12502 -1.03181,-0.35998 -1.46504,-0.69121 -0.52909,-0.39373 -1.02856,-0.82621 -1.47164,-1.30955 -0.4366,-0.47997 -0.97894,-1.09867 -1.14093,-1.53128 -0.15873,-0.43997 0.0987,-0.74369 0.1455,-1.11742 -0.2976,0.20123 -0.6647,0.31123 -0.89956,0.59495 -0.23149,0.29124 -0.4366,0.54873 -0.33398,1.05121 0.0987,0.49621 0.56884,1.11741 0.89619,1.67337 -0.97894,-0.79993 -1.52456,-1.11117 -1.75606,-2.06699 -0.21161,-0.90244 0.34398,-1.71963 0.77058,-2.39759 0.21161,-0.34373 0.53571,-0.65745 0.73082,-0.9887 -0.44647,-0.42621 -0.94256,-0.79368 -1.32282,-1.2864 -0.37373,-0.49623 -0.53572,-1.16367 -0.91607,-1.62716 -0.38697,-0.47246 -0.90619,-0.76744 -1.35591,-1.15116 0.39348,0.84618 1.04831,1.89163 1.1873,2.5497 0.1455,0.65746 -0.15874,1.06493 -0.3936,1.42204 -0.23149,0.35373 -0.60846,0.43997 -0.96569,0.6512 -0.36372,0.225 -0.91606,0.0499 -1.13105,0.37375 -0.21499,0.32122 -0.27448,0.81369 -0.07,1.13742 l 0.84657,1.31616 c -0.41672,-0.23748 -0.7772,-0.55622 -1.08143,-0.92995 -0.24473,-0.31747 -0.61508,-0.62121 -0.65808,-1.04494 -0.0525,-0.43372 -0.0762,-0.81369 0.20836,-1.1999 0.27773,-0.38748 1.05168,-0.51623 1.3956,-0.81371 0.34722,-0.29749 0.53571,-0.48996 0.51584,-0.87369 -0.02,-0.38748 -0.3936,-0.65745 -0.71758,-0.90244 -0.98881,-0.74369 -2.24882,-1.42202 -3.08881,-2.3116 -0.36048,-0.34748 -0.63171,-0.77371 -0.79033,-1.25341 -0.0987,-0.34748 0.003,-0.62121 0.23474,-1.03867 0.23811,-0.43374 1.04168,-1.00871 1.1443,-1.46505 0.0962,-0.46621 -0.31411,-0.56871 -0.67796,-0.73119 -0.3671,-0.16256 -1.06493,0.0875 -1.4055,-0.20125 -0.34061,-0.28498 0.0987,-0.87994 -0.28436,-1.20743 -0.3836,-0.32747 -1.26001,-0.14866 -1.71638,-0.49621 -0.40022,-0.33747 -0.67795,-0.7937 -0.79369,-1.30628 -0.15212,-0.46623 -0.17524,-0.96245 -0.07,-1.44191 0.10624,-0.37373 0.42334,-0.43997 0.61845,-0.63122 0.19512,-0.18873 0.35711,-0.34372 0.0987,-0.63119 -0.24473,-0.29124 -1.0913,0.0132 -1.57417,-0.34748 -0.49272,-0.37373 -0.19836,-1.26006 -0.53909,-1.63377 -0.34398,-0.35998 -0.94919,-0.21875 -1.27653,-0.34374 -0.32073,-0.11245 -0.44647,0.29749 -0.64158,-0.35997 -0.20174,-0.65746 -0.20836,-2.6357 -0.47297,-3.37327 -0.26461,-0.73746 -0.78708,-0.0499 -1.02856,-0.77996 -0.24798,-0.73119 -0.0137,-1.89825 -0.1225,-3.00281 l -0.49609,-3.00942 c -1.72299,1.16367 -2.867243,1.53115 -4.722513,1.85524 -0.15549,4.54058 -0.58209,7.21605 0.96231,12.25273 1.53779,5.03004 4.656363,8.0031 8.862963,12.25932 -5.55589,-4.15362 -8.198243,-7.53678 -9.858393,-11.86574 -1.65684,-4.33559 -1.34267,-7.9601 -1.1773,-12.12384 z m 29.495813,-1.82877 c 0.4266,0.0251 0.94256,0.12865 1.24342,0.32373 0.30098,0.20125 0.62171,0.35372 0.89294,0.62497 0.68121,0.69745 1.19055,1.53114 1.41543,2.48683 0.14551,0.61496 0.16537,1.39566 0.21161,2.11323 -0.20498,-0.65744 -0.3406,-1.34928 -0.63496,-1.94449 -0.45971,-0.94245 -1.24341,-1.85538 -2.22235,-2.27535 -0.21824,-0.0999 -0.46635,-0.13626 -0.7077,-0.0875 0.0762,0.13626 0.20836,0.25122 0.21498,0.43997 0,0.19498 -0.04,0.57496 -0.37035,0.73746 -0.52909,0.25747 -1.12105,0.0751 -1.53449,-0.28499 -0.41997,-0.38748 -0.54896,-0.99493 -0.33735,-1.51801 0.26123,-0.64122 1.24017,-0.64122 1.82882,-0.61496 z m -5.36077,-0.89995 c 0.0562,-1.09741 0.44648,-2.01399 1.43196,-2.54969 0.61846,-0.35373 1.29638,-0.59496 1.99748,-0.71122 0.68458,-0.0875 2.35795,-0.0251 3.3666,0.43374 0.7672,0.34748 1.29308,0.89619 1.97433,1.30304 0.67796,0.39997 1.1608,0.66495 1.80566,1.11742 0.99218,0.69746 1.57086,1.45178 2.25542,1.90488 0.33398,0.21873 0.7937,0.18873 1.2368,0.32372 -0.34398,0.10004 -0.79032,0.21125 -1.15743,0.10004 -0.52584,-0.21123 -1.01855,-0.50246 -1.44849,-0.87368 -0.50934,-0.45247 -1.0583,-0.8537 -1.64361,-1.18744 -0.4101,-0.23873 -1.08806,-0.52245 -1.5411,-0.81369 -0.44647,-0.29747 -1.22692,-0.93618 -1.66016,-1.15368 -0.68458,-0.28497 -1.41543,-0.42621 -2.1496,-0.41371 -0.84657,0.0251 -2.07022,0.16503 -2.71842,0.7537 -0.65146,0.59496 -0.89619,1.11117 -0.7507,1.87188 0.24149,-0.27749 0.40672,-0.63122 0.64483,-0.83996 0.50934,-0.43997 1.08806,-0.45998 1.72299,-0.37372 0.71108,0.0875 1.06493,0.49621 1.29968,1.17118 -0.15549,-0.11245 -0.44647,-0.35997 -0.67471,-0.44622 -0.47622,-0.18124 -1.01193,-0.12866 -1.44849,0.14238 -0.59196,0.32373 -0.42997,0.79368 -0.50934,1.30965 -0.0425,0.25124 -0.13562,0.43999 -0.20174,0.65747 -0.22161,-0.0499 -0.4266,-0.16255 -0.59533,-0.32373 0.003,0.25124 -0.0325,0.46621 0.02,0.73744 0.0462,0.27748 0.18186,0.60873 0.27785,0.90245 -0.41672,-0.41371 -0.84657,-0.79369 -1.10793,-1.32953 -0.28435,-0.51872 -0.43322,-1.11494 -0.42659,-1.70977 z m 0.72421,-7.93697 c 0.30098,-0.44996 0.3936,-1.14118 0.57546,-1.70977 -0.07,0.71745 0.07,1.49817 -0.27448,2.01412 -0.34723,0.52247 -0.96569,0.42623 -1.46504,0.58247 0.39022,-0.29749 0.85319,-0.43372 1.16405,-0.88619 z m -7.29873,10.59256 c 0.39348,-0.31748 1.44851,-0.0625 2.23559,-0.007 l -1.69983,0.43998 c -0.0562,0.19498 -0.0337,0.4062 -0.15874,0.57496 -0.13224,0.16872 -0.37697,0.22499 -0.56546,0.34373 0.02,-0.51249 -0.20499,-1.03496 0.18849,-1.35267 z m 5.56581,-21.99856 c 0.47297,0.24748 1.06156,0.58869 1.48488,0.59496 0.4101,0.0132 0.52247,-0.265 0.7672,-0.43372 0.38036,1.25666 0.82682,2.6357 1.48157,3.77663 0.27448,0.48245 0.44972,0.26123 0.66146,0.7412 0.20836,0.47997 0.2976,1.45178 0.49609,2.07023 0.19511,0.61871 0.4531,1.0612 0.68458,1.59727 -0.57546,-0.82619 -1.32614,-1.87174 -1.65354,-2.55633 -0.32411,-0.68496 -0.11624,-0.74371 -0.38035,-1.39227 -0.25799,-0.65498 -0.78708,-1.66678 -1.18068,-2.5001 -0.28435,0.0375 -0.62833,0.0875 -0.84332,0.0251 -0.21498,-0.0751 -0.17861,-0.30122 -0.37035,-0.44248 -0.19511,-0.14866 -0.52246,-0.0875 -0.79369,-0.33121 -0.26786,-0.23124 -0.33073,-0.71745 -0.35386,-1.14369 z m -2.53652,6.2007 c 0.44647,-0.0375 0.98881,0.0751 1.4055,0.0625 0.41672,-0.0251 0.71433,-0.12865 1.0748,-0.19873 -0.07,-0.62497 -0.007,-1.7759 -0.58208,-2.19586 -0.38035,-0.26498 -1.91149,-0.0625 -2.31825,0.0251 -0.92269,0.20123 -1.99748,0.75119 -2.88709,1.09118 0.85319,-0.59497 1.59071,-1.14368 2.61591,-1.45179 0.62171,-0.18249 2.05369,-0.42621 2.68865,-0.25124 0.29435,0.0751 0.34722,0.20125 0.52584,0.44624 0.60521,0.84367 0.60521,1.57077 0.75732,2.55632 0.15549,0.23498 0.31748,0.39372 0.44647,0.64122 0.12561,0.30746 0.20499,0.6287 0.22486,0.95619 -0.15873,-0.2275 -0.06,-0.51247 -0.49271,-0.68122 -0.44647,-0.17497 -1.11456,-0.0132 -1.70977,0.0499 0.43322,0.31748 0.64483,0.61496 0.66471,1.26991 0.02,0.76994 -0.63171,1.32618 -1.31622,1.37916 -0.94256,0.0751 -1.43526,-0.13494 -1.81558,-0.94243 -0.16861,-0.35373 -0.0525,-0.77996 -0.06,-1.12744 -1.14429,0.0751 -1.12442,0.0375 -1.95778,0.73371 0.45972,0.66495 0.74083,1.04118 1.49149,1.44191 0.41335,0.21873 0.89294,0.43997 1.40551,0.52871 0.51922,0.0875 1.37244,0.17499 1.92141,0.0875 0.47959,-0.0625 0.91932,-0.27121 1.25338,-0.61869 0.40673,-0.36997 0.44647,-0.9062 0.60184,-1.33279 -0.0137,0.41998 -0.0887,0.83369 -0.23149,1.2274 -0.46297,0.89244 -1.25669,1.16369 -2.20913,1.16369 -0.90944,0 -2.03715,-0.20874 -2.88707,-0.55872 -0.67796,-0.28123 -1.80236,-1.07492 -2.06693,-1.76588 -0.18524,-0.47246 -0.04,-1.05117 -0.06,-1.57753 0.94256,-0.62496 1.17067,-0.47246 2.27857,-0.65495 0.46635,-0.0875 0.79033,-0.25124 1.2368,-0.29124 z m -5.47321,-4.22971 c 0.0238,-0.37748 0.07,-0.36747 0.0987,-0.55246 -0.85657,-0.22748 -1.1938,0.32748 -1.69984,1.35928 -0.18849,0.37997 0,0.61497 -0.20499,0.86995 -0.19511,0.25122 -0.52584,0.21499 -0.84994,0.45997 -0.32411,0.24499 -0.64821,0.71119 -0.95569,0.9662 -0.62509,0.5162 -1.47827,0.82993 -2.20582,1.18366 0.49609,-0.36747 1.46504,-0.92244 1.77921,-1.45177 0.16536,-0.28499 0.13887,-0.81746 0.39685,-1.07495 0.25798,-0.24747 0.34722,-0.42997 0.67795,-0.49246 0.33073,-0.0625 0.20174,-0.44997 0.30761,-0.75745 0.10625,-0.30123 0.32073,-0.52247 0.54571,-0.82995 0.22486,-0.30748 0.51584,-0.75995 0.96232,-0.93244 0.44646,-0.16255 1.14754,0.0132 1.48817,-0.0751 0.33736,-0.10005 0.14225,-0.34749 0.39023,-0.49623 0.24798,-0.14866 0.7242,-0.0751 1.0583,-0.23872 0.58209,-0.27748 0.85982,-0.7512 1.21367,-1.24743 0.05,1.07869 0.0325,1.85526 -0.35385,2.87382 -0.43322,1.14366 -0.87969,1.81888 -2.11982,2.52333 -0.42335,0.23748 -0.84995,0.32374 -1.20705,0.45247 0.20499,-0.28498 0.50272,-0.40621 0.62171,-0.84618 0.11248,-0.44998 0.03,-1.3228 0.0562,-1.69315 z m 20.03758,5.26478 c -0.58534,0.0499 -0.7242,-0.0375 -1.20042,0.30123 l 0.7672,1.19119 c -0.02,-0.78372 0.06,-0.94245 0.43984,-1.49154 z m -1.5378,-0.5687 c 0.81357,-0.34373 1.52456,-0.62497 2.41416,-0.68496 0.35385,-0.0251 0.90619,0.0251 1.26662,0.0499 0.31085,-0.45249 0.69783,-0.80746 0.84657,-1.3228 0.0925,-0.34373 0.05,-1.93138 -0.12561,-2.34472 -0.48284,-1.19367 -0.95906,-1.24743 -1.63701,-1.93464 -0.48284,-0.49245 -0.50271,-1.25678 -0.65145,-2.10998 -0.05,-0.31122 -0.20499,-0.70495 -0.27774,-1.02493 -0.93593,-0.15247 -1.88503,-0.20499 -2.83416,-0.14866 0.48947,-0.47247 0.96232,-0.8962 1.10456,-1.60715 0.14886,-0.75745 0.0137,-1.54115 -0.37373,-2.20585 -0.40022,-0.63121 -1.04168,-1.19117 -1.6337,-1.70977 -0.58871,-0.51246 -1.44189,-0.93867 -1.99748,-1.36254 0.73083,-0.25497 1.46835,-0.6412 2.18267,-0.77744 1.85528,-0.35747 3.44929,0.18875 5.23841,1.26992 1.04168,0.62871 1.89496,1.22366 2.98299,2.36784 1.08806,1.13742 2.43069,3.22442 3.48565,4.45796 1.04831,1.23992 1.90158,2.21574 2.82094,2.95318 0.91269,0.74746 1.74614,0.95619 2.61921,1.42529 l 1.36251,1.44853 1.10793,-1.36579 1.76928,0.19873 0.3671,-1.98748 1.62047,-0.44998 -0.26123,-2.68208 1.17067,-0.83368 -0.88294,-1.66678 0.89294,-1.82875 -1.16405,-2.08349 0.44647,-2.00736 -1.34597,-1.15119 -0.17524,-2.13635 -1.88173,-0.71746 -0.7507,-1.85524 -2.11652,-0.0251 -1.04169,-1.37916 -1.42535,0.0999 -1.58409,-0.17499 -0.89294,-0.65745 -1.3096,0.85994 -1.57749,-0.81996 -3.13179,1.18744 2.04378,-1.77589 2.11652,-0.33747 1.62047,-0.41623 2.19258,0.72121 1.92473,-0.48622 1.86188,1.09491 1.97102,-0.0999 0.96894,1.73626 1.95448,0.22124 1.05831,1.92151 1.23017,0.67743 0.33073,2.46709 1.1013,1.04118 -0.48947,2.1595 1.28975,1.63377 -1.20042,1.74937 1.28977,1.09743 -1.65023,1.46503 1.67338,1.74953 -2.02725,0.66119 1.31622,1.87189 -1.65684,0.29123 1.08468,2.05698 -1.86188,-0.0251 0.94256,1.54101 -2.05369,-0.24498 0.48947,2.22236 -1.54771,-1.35916 -0.52585,2.69194 -1.06493,-1.93462 -0.57871,2.41409 -1.31291,-1.77588 0.0362,2.52996 -1.4518,-2.27524 c 0.30098,1.29306 0.24136,2.70183 1.08805,3.91888 2.62582,-0.35373 4.33888,-1.01494 6.3529,-2.94994 1.82551,-1.76264 4.01479,-5.43689 4.61006,-7.7716 0.67471,-2.65234 0.69446,-7.54352 0.03,-10.25522 -0.64158,-2.60271 -1.47495,-3.84612 -2.96314,-5.976 -1.42205,-1.50465 -2.82093,-3.10528 -4.6266,-4.18008 -2.65558,-1.5874 -6.04865,-2.01075 -9.068,-1.97101 -1.29969,0.003 -2.58283,0.24498 -3.79653,0.71121 -1.74283,0.63121 -3.14172,2.02062 -4.91763,2.7052 -0.57871,0.22123 -1.04168,0.22498 -1.5014,-0.0132 0.44648,0.89244 0.92932,1.29317 2.04708,1.61727 0.80695,0.23498 2.72834,0.0875 4.05777,-0.0375 1.42205,-0.12865 2.16284,-0.55245 4.09748,-0.5287 1.88503,0.0375 3.38645,0.74369 4.2066,1.21741 1.68991,0.96618 2.90031,2.03048 3.95526,3.73363 0.57872,0.93245 0.98557,1.98762 1.26661,3.05905 0.28435,1.07118 0.4101,2.27537 0.42997,3.3269 0.02,1.05119 -0.0625,1.99088 -0.32085,2.93668 -0.60184,2.2125 -1.92803,4.4646 -4.65306,4.11738 -1.66677,-0.20874 -4.17683,-3.34017 -5.02014,-4.48771 -1.70314,-2.31823 -3.44927,-4.88457 -5.58235,-6.80932 -1.34597,-1.20992 -3.0425,-1.96437 -4.83824,-2.14959 -3.28063,-0.29751 -4.25621,0.32372 -6.72329,2.3646 0.49934,0.15494 0.98881,0.24497 1.50472,0.47995 1.1443,0.51622 2.18929,1.17991 3.10204,2.03375 0.95907,0.89244 1.38898,1.46178 1.42204,2.74157 0.0225,0.85619 -0.67471,1.5379 -1.31952,2.14636 -0.39022,0.37746 -0.90944,0.72121 -1.23017,1.01493 -0.41997,0.38622 -0.94256,0.81369 -0.4101,1.42865 0.19849,0.23125 0.54572,0.40623 0.83345,0.62496 0.46634,0.34123 0.24798,1.61391 -0.35723,1.95789 -0.74745,0.44995 -1.69654,0.36745 -2.35794,-0.20125 0.81357,-0.11245 1.32943,-0.22498 1.30629,-0.89244 -0.007,-0.37998 -0.49272,-0.70495 -0.98219,-0.92244 -1.15742,-0.5287 -2.03054,-0.44622 -3.18472,-1.27979 -1.16742,-0.83995 -1.1873,-1.29978 -1.50471,-2.61259 -0.56221,0.0499 -1.08143,0.0751 -1.83543,0.32123 -0.74745,0.24499 -1.58079,0.83996 -2.26204,0.9887 -1.71968,0.36747 -2.06031,0.25747 -2.99952,0.0251 -1.65684,-0.43622 -3.80644,0.29747 -5.95274,0.98869 -0.35385,0.11245 -1.79574,0 -2.76472,0.33748 -1.74613,0.69119 -3.3699,1.64027 -4.818403,2.82094 -1.83874,1.5509 -4.25291,6.18085 -5.61542,11.49862 -0.14886,1.62051 0.31411,2.7052 -0.70445,3.49565 -1.018561,0.7937 -0.992063,2.81432 -1.339365,3.38303 -0.340603,0.56245 -0.744076,0.31123 -1.488192,1.11118 -0.737452,0.7937 -1.114427,0.66496 -1.097927,2.16285 0.644831,-0.41372 1.577471,-0.90243 2.39763,-0.94244 0.730828,-0.025 0.734204,0.93621 2.596044,-0.90243 0.99544,-0.9887 2.91354,-1.02119 4.24299,-1.45179 1.329433,-0.42996 3.720453,-1.32941 6.121403,-4.0081 2.39432,-2.67869 3.54187,-5.50302 4.00817,-9.57739 0.0662,0.7112 0.19849,1.53128 -0.10872,3.52215 -0.31411,1.99737 -0.97894,4.23297 0.42659,6.92492 l 0.87645,1.66678 c -0.51922,-0.7112 -1.5378,-1.87176 -1.85197,-2.69859 l -0.69783,-1.91875 c -1.5874,2.49034 -1.95117,2.93345 -4.15038,4.7127 -0.0863,1.10494 -0.10874,2.25536 0.25136,3.31366 0.35723,1.05868 -0.21161,2.27522 0.0662,2.9763 0.27123,0.69121 0.90281,0.29749 1.11118,1.00244 0.20836,0.70497 -0.10625,2.09998 0.21161,2.78457 0.32735,0.68496 1.11455,0.27122 1.4981,0.49621 0.38035,0.21873 0.50934,0.52247 0.71108,0.8137 0.20836,0.29124 -0.0763,0.98243 0.3406,1.20742 0.41672,0.21873 1.05831,0.0375 1.4981,0.24499 0.42998,0.21873 0.49272,0.73744 0.3936,1.19367 -0.10624,0.46623 -0.56884,0.67746 -0.77057,1.15117 -0.20499,0.39373 -0.18187,0.86619 0.0662,1.23368 0.24473,0.43372 0.78045,0.66495 1.32284,0.89244 0.53571,0.21124 1.29306,0.0875 1.84865,0.39372 0.55884,0.29747 1.05831,0.90244 1.34929,1.34266 0.29436,0.43373 0.37372,0.74371 0.36048,1.19993 -0.0463,0.50997 -0.19512,0.99494 -0.4531,1.43527 -0.24473,0.44624 -0.78045,0.9887 0.0662,1.83551 0.83995,0.83996 0.81357,0.47997 1.29968,1.03494 -0.0562,-0.95619 -0.44647,-1.72302 -0.16211,-2.4406 0.29098,-0.71745 1.15418,-0.8462 1.60062,-1.16367 0.45972,-0.33123 0.72421,-0.76744 1.07806,-1.15117 0,0.48997 0.05,1.02243 -0.007,1.38903 -0.10874,0.7512 -0.33735,1.42867 0.78382,1.54439 0.50597,0.0499 0.98881,-0.27122 1.51795,-0.4662 -0.27773,0.48996 -0.76057,0.89244 -0.83669,1.49152 -0.0925,0.64496 0.06,1.30629 0.42997,1.84862 0.4101,0.59496 1.12768,1.03493 1.65023,1.37578 0.52247,0.3475 0.80695,0.37999 1.20705,0.57497 0.02,0.58247 -0.0987,1.19992 -0.03,1.75614 0.0625,0.55496 0.24135,1.03867 0.55883,1.49804 0.32411,0.46619 0.83333,0.72494 1.31622,1.05868 -0.26461,-0.62123 -0.80032,-1.20744 -0.7937,-1.85526 0.007,-0.64871 0.19849,-1.10493 0.83332,-1.68664 0.63171,-0.57497 2.11322,-1.07119 2.81102,-1.63365 0.51596,-0.35996 0.92269,-0.85994 1.17405,-1.44191 0.24798,-0.54245 0.18186,-1.42202 0.22823,-1.90487 0.22824,0.67747 0.26123,0.89244 0.3406,1.60728 0.07,0.71745 -0.41997,1.72288 -0.62508,2.24872 0.75395,-0.34748 1.3526,-0.9687 1.68661,-1.73612 0.18849,0.11244 0.0925,0.4137 0.16211,0.99493 0.31086,-0.30374 0.65808,-0.53623 0.96894,-0.82621 0.31085,-0.29123 0.64483,-0.54247 0.80357,-0.94868 0.15212,-0.39999 0.0887,-0.83369 -0.0237,-1.29979 -0.11623,-0.47249 -0.63833,-1.01494 -0.92269,-1.53117 -0.27773,-0.50245 0.0525,-1.00868 0.0337,-1.62701 -0.56221,-0.0999 -1.03843,-0.38748 -1.69322,-0.29122 -0.64484,0.0999 -1.38898,0.81993 -2.0537,0.83368 -0.65808,0 -1.03843,-0.6212 -1.58078,-0.78745 -0.54572,-0.17498 -1.09131,-0.14866 -1.63701,-0.23122 0.69121,-0.6587 3.37653,-0.97618 5.21195,-1.2733 1.60725,-0.27124 3.23432,-0.41372 4.8614,-0.43996 0.73083,-0.0251 1.67338,0.22499 2.18597,0.0875 0.50272,-0.14866 0.39348,-0.49621 0.54234,-0.8737 0.4266,-1.05117 0.21824,-1.99749 -0.0137,-3.05579 -1.46834,-0.17499 -3.00282,-0.37999 -4.4844,-0.27123 -1.44849,0.11245 -3.16155,0.79993 -4.65965,0.84619 -1.29638,0.0499 -3.22772,-0.24499 -4.33889,-0.92869 -1.36583,-0.82621 -2.41747,-2.60921 -2.79449,-3.19131 -0.60846,-0.92992 -1.37573,-2.76469 -1.84865,-3.59811 -0.46634,-0.83996 -0.57209,-1.0712 -0.95906,-1.42204 -0.39023,-0.3475 -0.91932,-0.37372 -1.38566,-0.56247 0.53246,0.0499 1.11118,-0.11245 1.59401,0.15495 0.73082,0.41997 1.53779,2.14299 1.99085,2.90033 0.47947,-1.60728 0.36711,-2.23562 1.74945,-3.14506 -1.11117,1.25342 -1.1443,2.20248 -1.41543,3.67414 0.92931,1.5179 2.21574,3.94537 3.90235,4.6167 0.61508,0.24498 1.66015,0.39371 2.31826,0.47997 2.0537,0.25124 4.03464,-0.39374 6.04534,-0.89244 1.47164,-0.36749 2.96644,-0.21875 4.75556,-0.11245 0.60521,0.0375 2.03717,-0.33122 2.33811,-0.93619 0.17199,-0.35374 0.13887,-0.76745 -0.08,-1.09118 -0.23148,-0.34746 -0.84332,-0.52247 -1.17405,-0.83995 -0.32735,-0.32372 -0.51584,-0.69746 -0.77719,-1.03867 -1.15743,0.22497 -2.32819,0.34748 -3.51213,0.37997 0.73083,-0.29749 1.43197,-0.46621 2.18267,-0.75996 0.78383,-0.32372 1.53119,-0.72493 2.2356,-1.18741 0.61508,-0.40623 1.00206,-0.6387 1.44849,-1.10493 0.4431,-0.47246 1.00868,-0.95619 1.33606,-1.53114 0.32736,-0.57497 0.37698,-1.21993 0.39685,-1.93139 0.0137,-0.7112 -0.0162,-1.70638 -0.29098,-2.28521 -0.27773,-0.56872 -0.80357,-0.74371 -1.23017,-0.87246 -0.41997,-0.13494 -0.71433,0.20874 -1.15417,0.25123 -0.4431,0.0499 -0.8532,0.31749 -1.49481,0.0251 -0.82019,-0.42623 -1.52456,-1.05119 -2.04046,-1.81564 -0.64821,-0.90619 -1.10781,-2.39097 -1.76597,-3.53189 -1.13431,-1.97101 -2.54976,-3.79988 -3.89905,-5.62863 -0.11623,-0.44623 -0.27773,-1.0712 -0.33735,-1.68002 -0.10249,-1.06493 -0.11623,-2.16948 0.21499,-3.20455 0.24798,-0.79368 0.6217,-1.63377 1.4485,-1.95787 0.33073,-0.14237 0.70108,-0.16873 1.0483,-0.0751 0.29761,0.10004 0.59197,0.44622 0.4696,0.8337 -0.129,0.42621 -0.41998,0.44247 -0.62171,0.65496 -0.30098,0.30123 -0.50596,0.67745 -0.60521,1.09117 0.3671,-0.0132 0.86644,-0.0375 1.17067,0.0375 0.39685,0.0999 0.75733,0.36371 0.96231,0.92242 -0.47297,-0.41622 -0.70445,-0.6112 -1.28976,-0.62119 -0.27448,-0.007 -0.60183,0.0875 -0.89619,0.13494 -0.11248,0.35747 -0.17861,0.8037 -0.33398,1.08866 -0.16199,0.27748 -0.46634,0.20876 -0.58208,0.53249 -0.10873,0.42371 -0.12899,0.86368 -0.0662,1.29302 h 0.0137 z m 4.10739,-0.49248 c 0.18524,0.0751 0.24798,0.0875 0.48284,0.26498 0.22824,0.1725 0.54572,0.34373 0.72758,0.75744 0.1455,0.42624 0.19186,0.87995 0.13224,1.3228 -0.15873,-0.0499 -0.37372,-0.0132 -0.53909,-0.15511 -0.16536,-0.14238 -0.26123,-0.46246 -0.47284,-0.59495 -0.21499,-0.14238 -0.38698,-0.11245 -0.62171,-0.14238 0.12561,0.31748 0.16536,0.6587 0.11875,0.99493 -0.11875,0.6712 -0.51584,1.01494 -1.16405,1.09118 -0.27773,0.0375 -0.72421,-0.0499 -0.96569,-0.10005 0.11248,0.24749 0.30098,0.47247 0.41672,0.72494 0.54234,-0.0751 0.94257,-0.0625 1.24017,-0.20123 0.29099,-0.13626 0.60521,-0.44622 0.97894,-0.57246 0.37373,-0.12865 0.7077,-0.12865 1.1178,-0.19498 -0.3241,0.27748 -0.53571,0.55245 -0.85657,0.8362 l 0.70771,2.06034 c 0.50271,0.31749 0.97231,0.48249 1.60393,0.86997 0.63171,0.38373 1.38897,1.08115 2.21573,1.45501 0.82345,0.37374 1.3096,0.58498 2.17276,0.74371 0.85657,0.16503 1.5444,0.8662 2.38771,0.97869 0.84332,0.0999 2.4307,0.13627 3.08219,0.0751 0.74408,-0.0751 1.70646,-0.44999 1.79244,-1.2633 -0.62171,0.14866 -1.57086,0.0132 -2.04708,-1.15368 -0.21161,-0.51872 -0.11248,-1.47828 -0.4366,-2.08686 -0.32735,-0.61869 -0.78045,-0.81371 -1.32284,-1.57078 -0.54234,-0.75745 -1.42534,-1.94786 -1.9181,-2.95992 -0.49609,-1.01868 -0.6217,-2.16274 -1.03505,-3.07216 -0.42335,-0.9062 -1.05494,-1.63703 -1.55103,-2.34148 -1.07155,-1.53115 -1.93463,-2.56959 -3.70392,-3.34341 -0.85319,-0.36997 -1.82219,-0.47248 -2.72504,-0.70497 -0.37372,0.16504 -0.88631,0.34373 -0.97556,0.78372 -0.07,0.4962 0.07,1.00867 0.39685,1.39228 0.52584,0.5462 1.30631,1.13116 1.61056,1.9941 0.20174,0.55496 0.25136,2.41422 0.0825,2.92019 -0.17861,0.52874 -0.58871,0.84996 -0.93256,1.19367 z m 0.17199,4.40171 c -0.16211,0.14238 -0.28773,0.28749 -0.55222,0.40372 -0.2646,0.12502 -0.62508,0.14866 -0.97556,0.23498 0.48947,0.76371 1.00869,1.54104 1.47826,2.34473 0.47284,0.79995 0.87969,1.68653 1.32614,2.52984 -0.0225,-0.48622 0.007,-0.99868 -0.0625,-1.44841 -0.07,-0.44996 -0.27449,-0.83995 -0.47947,-1.52464 -0.19849,-0.68121 -0.44647,-1.60065 -0.7342,-2.53984 z m -13.225,-16.82302 c -0.07,0.74745 0.0625,1.92137 0.21161,2.66545 0.19186,0.88369 0.3671,1.33603 1.08468,1.86526 1.3096,0.97494 2.14299,0.80994 3.15826,1.37565 0.47947,0.26748 1.08468,0.71745 1.2633,1.18742 0.17524,0.48247 -0.11875,0.99493 -0.48284,1.19992 0.63496,0.0999 1.34929,-0.62496 1.05168,-1.35591 -0.14886,-0.35996 -0.84332,-0.52872 -1.05831,-0.89619 -0.19511,-0.33748 -0.23148,-0.7412 -0.10872,-1.10743 0.17524,-0.66745 1.50141,-1.28317 1.97432,-1.80575 0.72095,-0.81994 0.99206,-1.49804 0.58534,-2.54647 -0.56884,-1.47164 -2.78456,-2.65881 -4.10739,-3.23754 -0.60521,-0.26498 -0.94919,-0.27748 -1.41874,-0.42622 0.96569,0.57497 1.98756,1.02494 2.48031,2.2851 0.40672,1.0612 0.05,1.46505 0.07,2.38448 0.007,0.42996 0.56884,0.64495 0.8202,0.90993 0.21161,0.23874 0.19848,0.41374 0.0263,0.73746 -0.0137,-0.26499 -0.14886,-0.50871 -0.3671,-0.65747 -0.37035,-0.26496 -0.77383,-0.20872 -0.97231,-0.74368 -0.29761,-0.81996 0.30098,-1.60065 -0.37035,-2.52009 -0.4961,-0.68747 -1.16743,-1.45842 -2.06693,-1.47814 -0.40673,-0.003 -0.80695,0.0625 -1.19055,0.19122 l -0.60521,-0.72745 -0.0162,-0.01 c -1.23017,-1.12117 -2.07353,-2.04712 -3.79322,-2.81768 -1.72628,-0.77371 -2.57952,-0.89246 -4.56045,-0.84621 -1.97432,0.0375 -3.93542,0.20874 -6.22723,2.18275 -2.2951,1.98424 -8.204863,9.55075 -9.640123,10.50655 -1.42535,0.95619 -1.74283,1.28642 -3.531963,1.28642 -1.789134,0 -4.586914,-2.5332 -4.696045,-5.69813 -0.106246,-3.16155 -0.148861,-4.28921 2.04708,-8.09898 2.202507,-3.80975 6.180928,-4.98041 9.140758,-5.37401 2.959833,-0.39999 4.735733,0.64121 6.918403,0.64495 2.18267,0.007 4.3455,-0.36747 4.98707,-2.1066 -0.3141,0.18498 -0.73083,0.39622 -1.90817,0.33373 -1.17405,-0.0625 -2.80772,-1.42543 -4.63653,-2.33485 -1.83543,-0.91245 -3.86928,-1.02119 -6.488493,-1.06869 -2.61259,-0.0499 -5.876665,0.14867 -9.110991,1.89826 -3.234315,1.73626 -5.440134,3.58826 -7.31856,7.01104 -1.878416,3.41615 -2.156212,6.20073 -1.851956,10.34119 0.297605,4.13385 1.577472,7.21279 4.031324,10.24535 2.460464,3.02266 4.914306,4.50757 9.339183,5.05655 l 0.93594,-4.10736 -1.666771,2.38434 0.04625,-2.65557 -1.504727,1.86848 -0.668083,-2.53657 -1.21367,2.03387 -0.60521,-2.82757 -1.772597,1.42866 0.562213,-2.33149 -2.338098,0.25749 1.071432,-1.62376 -2.129764,0.0251 1.24017,-2.15959 -1.885027,-0.30123 1.501403,-1.97101 -2.308338,-0.68119 1.911489,-1.83538 -1.894952,-1.54441 1.481566,-1.15118 -1.388972,-1.84863 1.481579,-1.71963 -0.552341,-2.26536 1.253381,-1.08742 0.373727,-2.59933 1.408821,-0.70745 1.21042,-2.02062 2.238893,-0.23748 1.104553,-1.8289 2.248813,0.11245 2.12314,-1.15117 2.20252,0.50871 2.500153,-0.7537 1.85858,0.42998 2.41747,0.35747 2.33148,1.86513 -3.57494,-1.24617 -1.79906,0.85993 -1.49149,-0.90243 -1.025183,0.69121 -1.8189,0.18875 -1.62377,-0.10005 -1.18392,1.44191 -2.420779,0.0251 -0.85982,1.94786 -2.149596,0.7537 -0.201738,2.24224 -1.544401,1.20991 0.512594,2.10661 -1.32944,2.19586 1.025184,1.92137 -1.008684,1.74951 1.336063,0.8737 -0.297607,2.82096 1.86188,0.4662 0.413348,2.09336 2.027243,-0.20874 1.259992,1.4353 1.554321,-1.52466 c 2.83748,-1.41539 4.00818,-2.20911 6.223923,-4.60006 2.51008,-2.72184 3.95527,-5.23842 7.30203,-7.1003 2.41085,-1.33942 4.36865,-1.82226 7.07384,-1.34929 2.53322,0.43623 3.38644,1.96099 5.25824,3.56164 0.20174,-0.35996 0.23149,-0.45998 0.55884,-0.72119 -0.0987,0.46997 -0.26123,0.94868 -0.3076,1.3989 z"
       inkscape:connector-curvature="0"
       style="fill:#a42e2b;fill-opacity:1;stroke-width:0.26458332" />
  </g>
  <g
     inkscape:groupmode="layer"
     id="layer2"
     inkscape:label="Layer 2"
     style="display:none"
     transform="translate(0,62.749995)">
    <rect
       style="fill:none;fill-opacity:1;stroke-width:1.91201723"
       id="rect51"
       width="158.74998"
       height="158.74998"
       x="0"
       y="-62.75" />
    <path
       style="fill:none;stroke:#000000;stroke-width:0.26458332px;stroke-linecap:butt;stroke-linejoin:miter;stroke-opacity:1"
       d="M 79.593764,-62.75 V 96"
       id="path878"
       inkscape:connector-curvature="0" />
    <path
       style="display:inline;fill:none;stroke:#000000;stroke-width:0.26458332px;stroke-linecap:butt;stroke-linejoin:miter;stroke-opacity:1"
       d="M 0,16.406237 H 158.75001"
       id="path878-3"
       inkscape:connector-curvature="0" />
  </g>
</svg>
